<?xml version="1.0" standalone="no"?>
<!DOCTYPE svg PUBLIC "-//W3C//DTD SVG 20010904//EN"
 "http://www.w3.org/TR/2001/REC-SVG-20010904/DTD/svg10.dtd">
<svg version="1.0" xmlns="http://www.w3.org/2000/svg"
 width="1079.000000pt" height="806.000000pt" viewBox="0 0 1079.000000 806.000000"
 preserveAspectRatio="xMidYMid meet">

<g transform="translate(0.000000,806.000000) scale(0.100000,-0.100000)"
fill="#000000" stroke="none">
<path d="M0 7660 c0 -260 3 -400 10 -400 6 0 10 -18 10 -40 0 -22 -4 -40 -10
-40 -5 0 -10 -17 -10 -37 l0 -38 195 0 c138 0 198 4 203 12 4 6 25 13 47 16
22 2 3 4 -42 5 -76 2 -83 4 -83 22 0 17 7 20 40 20 22 0 40 -4 40 -10 0 -6 47
-10 120 -10 73 0 120 4 120 10 0 6 -18 10 -40 10 l-40 0 0 40 c0 40 0 40 39
40 l39 0 7 -50 c6 -44 10 -50 31 -50 20 0 24 -5 24 -30 0 -29 1 -30 50 -30
l50 0 0 50 0 50 40 0 c22 0 40 5 40 10 0 6 18 10 40 10 l40 0 0 100 0 100 40
0 c22 0 40 5 40 10 0 6 18 10 40 10 22 0 40 -4 40 -10 0 -5 -18 -10 -40 -10
l-40 0 0 -40 0 -40 40 0 40 0 0 -40 0 -40 120 0 120 0 0 -40 0 -40 160 0 c153
0 160 -1 160 -20 0 -17 7 -20 40 -20 33 0 40 3 40 20 0 18 7 20 80 20 l80 0 0
-40 0 -40 80 0 80 0 0 -40 0 -40 50 0 50 0 0 50 c0 28 -4 50 -10 50 -6 0 -10
70 -10 190 l0 190 -40 0 -40 0 0 80 c0 47 4 80 10 80 6 0 10 33 10 80 l0 80
60 0 60 0 0 -40 c0 -22 5 -40 10 -40 6 0 10 18 10 40 l0 40 40 0 c22 0 40 5
40 10 0 6 -18 10 -40 10 -22 0 -40 5 -40 10 0 6 -18 10 -40 10 -33 0 -40 3
-40 20 0 16 -7 20 -30 20 -28 0 -30 2 -30 40 0 33 -3 40 -20 40 -14 0 -20 7
-22 23 0 12 -1 29 -2 37 -1 13 -124 15 -1029 18 l-1027 2 0 -400z m2000 0 l0
-80 -40 0 c-38 0 -40 2 -40 30 0 28 -2 30 -40 30 -22 0 -40 5 -40 10 0 6 27
10 60 10 l60 0 0 40 c0 33 3 40 20 40 18 0 20 -7 20 -80z m-1280 -431 c0 -16
5 -29 10 -29 6 0 10 -9 10 -20 0 -13 -7 -20 -20 -20 -16 0 -20 7 -20 30 0 25
-4 30 -25 30 -17 0 -25 5 -25 18 0 12 9 17 35 19 33 2 35 0 35 -28z m1280 -9
l0 -40 -40 0 -40 0 0 40 0 40 40 0 40 0 0 -40z"/>
<path d="M2240 8020 c0 -22 5 -40 10 -40 6 0 10 5 10 10 0 6 7 10 15 10 10 0
15 10 15 30 0 25 -4 30 -25 30 -22 0 -25 -4 -25 -40z"/>
<path d="M3400 8050 c0 -5 6 -10 14 -10 8 0 18 5 21 10 3 6 -3 10 -14 10 -12
0 -21 -4 -21 -10z"/>
<path d="M3715 8024 c-4 -23 -13 -38 -25 -41 -28 -8 -12 -33 21 -33 19 0 29
-5 29 -14 0 -8 5 -18 11 -22 7 -4 10 8 7 37 -2 40 -1 44 22 47 14 1 52 -2 85
-7 48 -7 53 -9 23 -10 -37 -1 -38 -2 -38 -41 0 -22 5 -40 10 -40 6 0 10 -18
10 -40 0 -29 -4 -40 -15 -40 -11 0 -15 -11 -15 -40 l0 -40 40 0 40 0 0 40 0
40 40 0 c33 0 40 3 40 20 0 17 7 20 39 20 22 0 42 5 44 13 4 8 16 1 36 -20 22
-23 40 -33 61 -33 28 0 30 2 30 40 l0 40 55 0 c54 0 55 0 55 30 l0 30 -80 0
c-47 0 -80 4 -80 10 0 6 9 10 20 10 11 0 20 5 20 10 0 6 7 10 15 10 10 0 15
10 15 30 l0 30 -254 0 -254 0 -7 -36z"/>
<path d="M6640 8049 c0 -5 5 -7 10 -4 6 3 10 8 10 11 0 2 -4 4 -10 4 -5 0 -10
-5 -10 -11z"/>
<path d="M6680 8055 c0 -3 18 -16 41 -30 22 -15 38 -31 36 -38 -2 -7 2 -25 10
-40 8 -16 16 -38 18 -49 6 -29 15 -35 17 -12 0 10 4 -1 7 -26 6 -39 2 -51 -22
-88 -15 -23 -37 -51 -48 -61 -11 -10 -21 -29 -21 -42 -1 -13 -7 -31 -14 -39
-6 -8 -19 -29 -28 -47 -12 -25 -24 -33 -58 -39 -24 -5 -54 -8 -68 -9 -19 0
-25 -7 -31 -34 -4 -19 -14 -38 -23 -43 -18 -10 -22 -34 -6 -40 14 -5 42 -78
30 -78 -5 0 -10 -18 -10 -40 0 -28 -4 -40 -14 -40 -9 0 -15 -15 -18 -45 -4
-51 -7 -50 101 -39 l61 7 0 38 c0 39 0 39 40 39 29 0 40 4 40 15 0 11 11 15
40 15 l40 0 0 -41 c0 -36 2 -40 15 -29 8 7 15 19 15 26 0 8 10 14 24 14 18 0
25 6 28 23 2 13 10 22 20 22 22 0 50 31 68 75 8 19 19 38 24 42 18 12 118 -3
159 -24 22 -11 41 -17 44 -14 7 7 76 -22 84 -36 4 -7 11 -3 18 10 17 31 70 44
151 36 61 -6 70 -4 70 10 0 13 11 16 61 16 47 0 65 4 75 18 7 9 18 17 26 17 7
0 17 10 23 23 6 13 18 22 32 22 18 0 23 6 23 25 0 23 4 25 40 25 39 0 40 -1
40 -35 0 -34 20 -49 35 -25 3 6 15 10 26 10 20 0 27 -34 9 -45 -20 -12 -10
-35 15 -35 23 0 25 4 25 40 0 33 3 40 19 40 15 0 21 8 24 38 3 30 4 28 5 -15
l2 -53 40 0 c29 0 40 4 40 15 0 11 11 15 40 15 l40 0 0 -40 c0 -36 3 -40 25
-40 23 0 25 -4 25 -40 0 -27 -4 -40 -14 -40 -7 0 -19 -7 -26 -15 -7 -9 -29
-15 -51 -15 -38 0 -39 -1 -39 -33 0 -29 -5 -36 -40 -53 -22 -10 -40 -25 -40
-31 0 -7 -5 -13 -11 -13 -6 0 -20 -12 -31 -26 -11 -14 -26 -23 -32 -21 -8 3
-12 -10 -13 -36 -2 -30 -8 -46 -25 -59 l-23 -18 23 0 c26 0 27 -8 8 -36 -8
-11 -16 -33 -18 -49 -2 -23 -8 -30 -24 -29 -16 0 -21 -6 -22 -30 -3 -86 -15
-176 -23 -176 -5 0 -9 7 -9 15 0 8 -4 15 -10 15 -5 0 -10 -6 -10 -14 0 -8 -6
-16 -12 -19 -7 -2 1 -8 17 -12 17 -4 34 -10 39 -13 14 -8 -35 -30 -56 -24 -10
2 -24 0 -31 -6 -6 -5 -40 -13 -74 -17 -42 -5 -63 -11 -63 -20 0 -7 -21 -23
-47 -36 -33 -16 -42 -24 -31 -28 14 -5 14 -9 4 -23 -7 -10 -16 -15 -19 -12 -3
4 -12 -5 -18 -20 -7 -14 -17 -26 -22 -26 -6 0 -8 -3 -5 -6 4 -3 2 -19 -3 -36
-5 -20 -4 -38 3 -51 6 -11 11 -42 11 -68 0 -38 5 -52 23 -68 13 -12 24 -18 24
-15 0 4 7 1 15 -6 12 -10 19 -10 27 -2 15 15 38 -3 38 -29 0 -11 4 -19 9 -19
13 0 85 42 89 52 2 4 10 8 19 8 16 0 43 23 43 38 0 5 17 17 38 26 35 16 51 35
68 79 3 9 10 17 15 17 5 0 9 7 9 15 0 8 15 21 33 30 33 15 68 36 77 46 3 3 20
11 38 18 31 13 32 15 16 32 -10 11 -23 19 -31 19 -19 0 -50 30 -61 60 -33 88
-21 260 19 260 14 0 19 7 19 25 0 33 11 32 45 -7 16 -18 30 -27 32 -21 6 16
29 6 59 -24 29 -29 33 -79 6 -88 -24 -7 -42 -46 -42 -90 0 -28 -4 -35 -20 -35
-16 0 -20 -7 -20 -30 0 -16 5 -30 10 -30 6 0 10 -7 10 -15 0 -12 15 -15 73
-15 39 0 82 -3 95 -6 19 -5 23 -3 20 11 -2 12 9 25 31 38 l34 21 23 -27 c14
-16 33 -27 49 -27 22 0 25 -4 25 -34 0 -19 2 -40 5 -48 3 -7 -8 -22 -25 -33
-16 -11 -30 -26 -30 -32 0 -7 -4 -13 -10 -13 -5 0 -10 5 -10 10 0 6 -9 10 -20
10 -11 0 -20 -4 -20 -10 0 -5 -9 -10 -20 -10 -11 0 -20 -4 -20 -10 0 -5 9 -15
20 -22 11 -7 20 -19 20 -27 0 -8 18 -32 40 -53 45 -45 47 -48 23 -48 -10 0
-13 -3 -7 -9 5 -5 35 -5 71 0 59 8 64 7 88 -17 14 -14 25 -31 25 -37 0 -9 13
-12 38 -10 29 2 33 1 17 -6 -16 -8 -17 -10 -3 -10 47 -2 78 47 78 125 0 29 4
44 13 44 17 0 126 108 144 145 9 16 19 32 23 35 4 3 13 16 19 28 21 40 54 72
73 72 10 0 18 7 18 16 0 26 168 184 196 184 13 0 24 6 24 13 0 6 19 23 41 37
l41 25 -7 87 c-8 102 -1 145 26 153 10 4 19 12 19 19 0 7 11 22 24 33 18 16
27 18 36 10 9 -9 14 -8 24 6 7 9 18 17 25 17 6 0 11 9 11 19 0 20 18 31 51 31
11 0 22 7 25 15 5 11 10 12 26 2 16 -9 22 -9 25 1 3 6 17 12 32 12 18 0 32 8
40 23 6 12 26 31 42 42 40 26 51 53 60 145 4 41 11 89 14 107 8 34 -18 82 -43
83 -23 0 -1 22 44 42 l44 19 0 55 c0 52 14 84 37 84 21 0 53 52 53 85 0 24 5
35 15 35 9 0 15 -9 15 -22 0 -22 0 -22 25 4 14 15 25 34 25 43 0 14 9 16 55
13 51 -3 55 -2 55 20 l0 22 -706 0 c-612 0 -705 -2 -695 -14 7 -8 24 -15 39
-15 36 0 105 -26 113 -43 4 -7 15 -30 25 -50 l18 -37 80 -3 c45 -2 100 -1 124
1 42 3 42 3 42 42 0 28 4 39 15 39 11 0 15 -11 15 -40 0 -29 -4 -40 -15 -40
-16 0 -20 -37 -15 -144 2 -51 0 -58 -14 -53 -12 5 -21 -3 -33 -28 -9 -19 -20
-35 -25 -35 -4 0 -8 -31 -8 -70 0 -40 -4 -70 -10 -70 -5 0 -10 -6 -10 -13 0
-24 25 -67 38 -67 8 0 12 -8 10 -17 -3 -14 -14 -18 -53 -18 -28 0 -54 -5 -60
-12 -5 -6 -23 -13 -40 -15 -22 -2 -31 -9 -33 -24 -2 -14 -19 -28 -51 -42 -68
-31 -98 -29 -138 13 -19 19 -38 35 -43 35 -6 0 -10 5 -10 10 0 13 -127 13
-135 1 -8 -14 -85 -22 -125 -13 -32 7 -36 13 -49 59 -10 39 -19 53 -34 55 -23
3 -34 32 -36 91 -1 20 -5 37 -11 37 -5 0 -10 23 -10 51 0 55 54 189 77 189 7
0 16 6 20 13 4 6 17 17 28 23 11 7 19 20 17 29 -3 13 1 16 17 12 11 -3 20 -2
19 2 -2 21 5 33 30 44 15 6 33 17 40 24 7 7 27 13 43 13 16 0 29 4 29 9 0 5
18 16 40 25 22 9 40 23 40 31 0 13 -113 15 -980 15 -539 0 -980 -2 -980 -5z
m65 -705 c3 -5 -1 -10 -9 -10 -9 0 -16 5 -16 10 0 6 4 10 9 10 6 0 13 -4 16
-10z m38 -47 c-13 -2 -33 -2 -45 0 -13 2 -3 4 22 4 25 0 35 -2 23 -4z m2037
-53 c0 -5 -4 -10 -10 -10 -5 0 -10 5 -10 10 0 6 5 10 10 10 6 0 10 -4 10 -10z"/>
<path d="M10450 8042 c0 -27 34 -62 59 -62 15 0 21 -6 21 -21 0 -15 5 -19 15
-15 12 4 15 -6 15 -59 0 -61 -2 -65 -22 -65 -19 0 -20 -2 -8 -10 20 -13 190
-13 190 0 0 6 11 10 25 10 14 0 25 -4 25 -10 0 -5 -4 -10 -10 -10 -5 0 -10
-13 -10 -30 0 -20 -5 -30 -15 -30 -16 0 -21 -40 -6 -55 10 -12 0 -106 -11
-105 -5 0 -12 0 -18 0 -6 0 -10 -33 -10 -80 0 -64 3 -80 15 -80 13 0 15 -24
15 -160 l0 -160 35 0 35 0 0 480 0 480 -170 0 c-159 0 -170 -1 -170 -18z"/>
<path d="M2320 7990 c0 -5 5 -10 11 -10 5 0 7 5 4 10 -3 6 -8 10 -11 10 -2 0
-4 -4 -4 -10z"/>
<path d="M2404 7931 c-6 -26 -11 -31 -35 -31 l-29 0 0 -80 0 -80 110 0 110 0
0 40 c0 22 5 40 10 40 6 0 10 -6 10 -12 0 -9 3 -8 10 2 15 23 -31 60 -75 60
-24 0 -35 4 -35 15 0 9 -9 15 -23 15 -25 0 -55 36 -35 42 9 3 9 6 0 12 -8 5
-14 -3 -18 -23z"/>
<path d="M3683 7840 c2 -26 5 -28 27 -23 34 8 34 9 11 32 -29 29 -41 26 -38
-9z"/>
<path d="M4007 7793 c-4 -3 -7 -15 -7 -25 0 -14 -8 -18 -37 -19 l-38 -2 45 -8
c25 -4 60 -8 78 -8 30 -1 32 1 32 34 0 33 -2 35 -33 35 -19 0 -37 -3 -40 -7z"/>
<path d="M3733 7773 c-3 -10 -8 -21 -10 -25 -2 -5 5 -8 16 -8 16 0 21 6 21 25
0 29 -18 34 -27 8z"/>
<path d="M10530 7750 c-12 -8 -11 -10 8 -10 12 0 22 5 22 10 0 13 -11 13 -30
0z"/>
<path d="M2641 7713 c-1 -18 4 -33 9 -33 12 0 12 17 0 45 -7 17 -9 15 -9 -12z"/>
<path d="M2931 7697 c-5 -13 -11 -41 -12 -62 -2 -22 -8 -43 -14 -47 -6 -5 -5
-8 3 -8 7 0 11 -4 7 -9 -3 -5 6 -18 20 -29 14 -11 25 -25 25 -31 0 -6 5 -11
10 -11 13 0 13 67 1 74 -5 4 -11 2 -13 -3 -1 -5 -11 -4 -21 3 -16 13 -16 15 3
37 17 21 19 22 20 5 0 -15 3 -16 15 -6 14 12 14 15 0 30 -14 16 -14 18 0 23
20 8 19 43 -1 51 -26 10 -34 7 -43 -17z"/>
<path d="M2640 7600 c0 -5 5 -10 11 -10 5 0 7 5 4 10 -3 6 -8 10 -11 10 -2 0
-4 -4 -4 -10z"/>
<path d="M2300 7500 c0 -75 -1 -80 -21 -80 -20 0 -21 -3 -14 -80 6 -70 5 -80
-9 -80 -12 0 -16 -10 -16 -40 0 -40 0 -40 39 -40 40 0 40 0 44 43 l4 42 1 -42
c2 -38 5 -43 25 -43 13 0 28 -5 35 -12 9 -9 12 -9 12 3 0 9 3 10 8 3 4 -7 16
-13 26 -15 19 -4 67 -73 81 -118 5 -17 2 -21 -14 -21 -17 0 -21 -6 -21 -36 0
-35 -18 -64 -39 -64 -6 0 -11 -13 -11 -30 0 -20 -5 -30 -15 -30 -8 0 -15 -7
-15 -15 0 -11 -11 -15 -40 -15 -22 0 -40 -4 -40 -10 0 -5 18 -10 40 -10 29 0
40 -4 40 -15 0 -11 11 -15 40 -15 29 0 40 4 40 15 0 11 11 15 40 15 29 0 40
-4 40 -15 0 -11 -11 -15 -40 -15 l-40 0 0 -40 0 -40 40 0 40 0 0 -55 c0 -54 0
-55 29 -55 16 0 31 -5 33 -11 2 -7 47 -11 121 -12 94 -1 120 1 127 13 16 26
11 40 -15 40 -22 0 -25 4 -25 40 0 35 -3 40 -23 40 -12 0 -29 -9 -37 -20 -8
-11 -22 -20 -32 -20 -11 0 -18 7 -18 20 0 11 -7 20 -15 20 -11 0 -15 11 -15
40 0 36 -2 40 -25 40 -22 0 -25 4 -25 40 l0 40 50 0 50 0 0 39 0 38 -87 2
c-55 1 -90 6 -95 14 -4 6 -11 8 -15 3 -4 -5 -2 -11 5 -13 18 -7 16 -83 -3 -83
-10 0 -15 10 -15 30 0 20 -5 30 -15 30 -8 0 -15 7 -15 16 0 20 24 44 45 44 13
0 16 9 15 48 -1 26 -1 71 -1 100 l1 52 161 0 162 0 -5 58 c-3 31 -3 49 -1 40
3 -13 14 -18 39 -18 19 0 34 2 34 5 0 2 -14 19 -32 37 -27 27 -29 33 -15 36
20 4 13 22 -9 22 -8 0 -14 -7 -14 -15 0 -8 -3 -14 -7 -14 -19 3 -33 -2 -33
-11 0 -6 -11 -22 -25 -35 -18 -19 -35 -25 -70 -25 l-46 0 2 58 c2 70 -25 201
-46 221 -13 14 -15 12 -15 -12 l0 -27 -120 0 -120 0 0 40 0 40 -50 0 -50 0 0
-80z m363 -63 c2 -6 -2 -18 -9 -25 -12 -11 -14 -8 -14 13 0 26 14 34 23 12z
m-183 -272 c0 -8 -4 -15 -9 -15 -5 0 -11 7 -15 15 -3 9 0 15 9 15 8 0 15 -7
15 -15z m320 -535 c0 -5 -4 -10 -10 -10 -5 0 -10 5 -10 10 0 6 5 10 10 10 6 0
10 -4 10 -10z"/>
<path d="M3031 7464 c0 -11 3 -14 6 -6 3 7 2 16 -1 19 -3 4 -6 -2 -5 -13z"/>
<path d="M8110 7380 c0 -33 3 -40 20 -40 17 0 20 7 20 40 0 33 -3 40 -20 40
-17 0 -20 -7 -20 -40z"/>
<path d="M3080 7382 c0 -22 26 -37 36 -21 3 6 4 11 3 12 -2 2 -12 9 -21 16
-16 12 -18 11 -18 -7z"/>
<path d="M2720 7370 c0 -18 3 -19 20 -8 14 9 16 14 7 20 -20 13 -27 9 -27 -12z"/>
<path d="M2820 7350 c0 -5 9 -10 20 -10 11 0 20 5 20 10 0 6 -9 10 -20 10 -11
0 -20 -4 -20 -10z"/>
<path d="M3020 7350 c0 -5 5 -10 10 -10 6 0 10 5 10 10 0 6 -4 10 -10 10 -5 0
-10 -4 -10 -10z"/>
<path d="M3120 7350 c0 -5 5 -10 10 -10 6 0 10 5 10 10 0 6 -4 10 -10 10 -5 0
-10 -4 -10 -10z"/>
<path d="M8765 7350 c-3 -5 3 -10 14 -10 12 0 21 5 21 10 0 6 -6 10 -14 10 -8
0 -18 -4 -21 -10z"/>
<path d="M3200 7332 c0 -4 5 -13 11 -19 21 -21 -12 -53 -53 -53 l-38 0 0 -65
0 -65 40 0 40 0 0 50 c0 28 5 50 10 50 6 0 10 11 10 25 0 13 8 29 18 35 12 8
13 13 5 16 -7 3 -13 12 -13 20 0 8 -7 14 -15 14 -8 0 -15 -4 -15 -8z"/>
<path d="M2974 7274 c18 -17 57 -15 64 4 2 8 -9 12 -38 12 -38 0 -40 -1 -26
-16z"/>
<path d="M2960 7161 c0 -15 9 -20 45 -23 54 -4 62 -2 75 23 10 18 7 19 -55 19
-57 0 -65 -2 -65 -19z"/>
<path d="M3193 7065 c0 -27 2 -38 4 -22 2 15 2 37 0 50 -2 12 -4 0 -4 -28z"/>
<path d="M1200 7070 c0 -28 2 -30 40 -30 38 0 40 2 40 30 0 28 -2 30 -40 30
-38 0 -40 -2 -40 -30z"/>
<path d="M1440 7090 c0 -5 18 -10 40 -10 22 0 40 5 40 10 0 6 -18 10 -40 10
-22 0 -40 -4 -40 -10z"/>
<path d="M2998 7043 c-51 -6 -49 -23 2 -23 29 0 40 4 40 15 0 8 -1 14 -2 13
-2 -1 -20 -3 -40 -5z"/>
<path d="M640 7004 c0 -14 3 -14 15 -4 8 7 15 14 15 16 0 2 -7 4 -15 4 -8 0
-15 -7 -15 -16z"/>
<path d="M3120 6999 c0 -18 2 -19 15 -9 8 7 15 16 15 21 0 5 -7 9 -15 9 -9 0
-15 -9 -15 -21z"/>
<path d="M3200 6981 c0 -5 -3 -18 -6 -28 -5 -15 -4 -16 6 -3 9 11 13 12 17 3
7 -18 23 -16 23 2 0 8 -9 19 -20 25 -12 6 -20 7 -20 1z"/>
<path d="M6398 6960 c-4 -14 -78 -23 -78 -10 0 10 -40 7 -58 -4 -7 -4 -16 -5
-20 -2 -5 3 -6 -8 -4 -25 4 -28 3 -29 -37 -29 -30 0 -41 -4 -41 -15 0 -12 -15
-15 -79 -15 -75 0 -80 1 -84 23 l-4 22 -8 -22 c-4 -13 -15 -23 -25 -23 -10 0
-21 10 -25 23 -6 19 -8 19 -12 5 -6 -24 -20 -23 -33 2 -11 20 -50 28 -50 11 0
-6 -12 -6 -32 0 -44 12 -128 12 -128 -1 0 -5 -7 -10 -15 -10 -9 0 -18 -7 -21
-15 -7 -17 -40 -20 -49 -5 -4 6 -11 7 -17 4 -7 -4 -6 -9 2 -14 9 -5 4 -12 -16
-21 -15 -8 -31 -25 -35 -39 -4 -14 -7 -18 -8 -11 -1 12 -4 12 -13 3 -10 -10
-10 -15 2 -22 13 -8 12 -12 -7 -25 -13 -9 -20 -22 -17 -30 4 -9 0 -15 -9 -15
-8 0 -18 10 -21 23 -6 22 -7 22 -18 2 -15 -24 -18 -54 -6 -61 4 -3 8 -14 8
-24 0 -17 -7 -19 -49 -17 -43 2 -52 -1 -71 -25 -25 -32 -37 -35 -43 -10 -4 13
-5 13 -6 -4 0 -12 -10 -28 -21 -35 -12 -8 -23 -30 -27 -51 -5 -34 -3 -38 15
-38 16 0 22 -9 27 -40 7 -43 11 -45 91 -40 18 1 38 -6 48 -15 9 -9 20 -13 26
-10 5 3 10 0 10 -7 0 -7 10 -18 23 -23 12 -6 21 -16 20 -23 -2 -7 1 -12 6 -12
5 0 11 -10 13 -22 2 -14 11 -24 24 -26 17 -2 46 -41 46 -62 0 -18 22 -40 40
-40 19 0 20 1 4 25 -22 33 -20 55 4 55 11 0 20 -4 20 -10 0 -5 9 -10 20 -10
11 0 20 -4 20 -10 0 -13 27 -13 35 0 3 6 -4 14 -17 19 -20 8 -17 10 20 10 39
1 48 8 43 35 -1 5 5 4 13 -4 9 -7 16 -19 16 -26 0 -8 10 -14 25 -14 14 0 25
-4 25 -10 0 -5 -7 -7 -16 -3 -12 4 -15 2 -12 -8 3 -8 15 -15 27 -15 23 -1 48
-26 32 -32 -5 -2 -7 -12 -4 -22 5 -19 6 -19 33 1 16 13 37 19 51 16 22 -4 22
-4 -3 -6 -29 -1 -41 -31 -13 -31 28 0 65 24 65 42 0 14 8 18 40 18 38 0 40 2
40 30 0 20 5 30 15 30 11 0 15 11 15 40 0 29 -4 40 -15 40 -11 0 -15 11 -15
40 l0 40 50 0 50 0 0 40 c0 38 2 40 30 40 27 0 30 3 30 30 0 28 2 30 40 30 22
0 40 5 40 10 0 6 18 10 40 10 22 0 40 5 40 10 0 6 17 10 39 10 28 0 46 7 67
28 l29 27 -27 3 c-28 3 -28 4 -28 83 0 46 4 79 10 79 6 0 10 18 10 40 0 33 -3
40 -20 40 -17 0 -20 7 -20 40 0 24 -5 40 -12 40 -6 0 -19 7 -29 16 -11 10 -18
12 -21 4z m2 -385 c0 -11 -11 -15 -40 -15 -29 0 -40 4 -40 15 0 11 11 15 40
15 29 0 40 -4 40 -15z"/>
<path d="M6160 6950 c0 -5 7 -10 16 -10 8 0 12 5 9 10 -3 6 -10 10 -16 10 -5
0 -9 -4 -9 -10z"/>
<path d="M2300 6900 c0 -22 5 -40 10 -40 6 0 10 18 10 40 0 22 -4 40 -10 40
-5 0 -10 -18 -10 -40z"/>
<path d="M3138 6903 c12 -2 32 -2 45 0 12 2 2 4 -23 4 -25 0 -35 -2 -22 -4z"/>
<path d="M3075 6830 c-3 -5 -1 -10 4 -10 6 0 11 5 11 10 0 6 -2 10 -4 10 -3 0
-8 -4 -11 -10z"/>
<path d="M5380 6816 c0 -8 5 -18 10 -21 6 -3 10 1 10 9 0 8 -4 18 -10 21 -5 3
-10 -1 -10 -9z"/>
<path d="M2880 6796 c0 -12 10 -16 40 -16 22 0 40 5 40 10 0 6 -11 10 -24 10
-13 0 -31 3 -40 6 -11 4 -16 1 -16 -10z"/>
<path d="M0 6241 c0 -495 2 -550 16 -544 9 3 14 13 11 24 -3 11 -2 17 2 15 4
-3 18 13 31 35 14 21 28 39 33 39 6 0 -13 -40 -79 -160 -8 -14 -14 -55 -14
-96 l0 -70 103 -23 c174 -40 222 -52 232 -62 11 -11 -69 -1 -95 11 -8 4 -30 8
-48 8 -18 0 -39 5 -45 10 -7 6 -34 15 -62 20 -27 5 -58 13 -67 17 -17 7 -18
-16 -18 -373 0 -375 1 -381 21 -384 11 -2 19 -7 19 -13 -1 -5 -10 -9 -20 -7
-20 3 -20 -24 -20 -2302 0 -1268 3 -2306 7 -2306 5 0 60 11 123 24 63 13 216
45 340 70 124 26 241 51 260 56 19 5 97 21 173 35 159 29 369 68 512 95 55 10
184 35 287 54 103 19 262 51 355 70 92 19 218 44 278 55 61 11 198 36 305 56
319 58 493 92 521 103 14 6 52 13 85 17 32 4 106 16 164 27 369 72 401 78 466
93 33 8 159 32 280 54 231 42 380 71 504 96 41 8 138 27 214 41 146 26 176 36
176 58 0 20 41 25 210 22 129 -2 161 1 190 15 77 38 116 118 89 184 -7 17 -11
33 -11 38 1 4 -10 4 -24 1 -20 -5 -31 -2 -40 11 -13 17 -14 17 -40 0 -22 -14
-28 -15 -35 -4 -8 11 -12 11 -23 -3 -14 -19 -32 -25 -21 -8 3 6 -1 7 -9 4 -9
-3 -16 -1 -16 5 0 6 -7 11 -15 11 -20 0 -19 10 2 25 14 10 21 10 40 -2 13 -9
23 -11 23 -5 0 6 -5 14 -10 17 -6 4 -8 10 -6 14 3 4 -10 6 -27 5 -39 -3 -72
22 -56 43 9 10 8 13 0 13 -15 0 -41 -25 -41 -39 0 -6 -5 -11 -11 -11 -5 0 -9
8 -8 17 4 43 -1 51 -27 48 -14 -1 -30 -7 -37 -14 -8 -8 -16 -6 -29 6 -10 9
-18 19 -18 23 0 4 57 10 128 14 216 12 305 22 331 35 30 17 46 14 31 -4 -10
-12 -10 -15 4 -15 9 0 16 7 16 15 0 8 1 15 3 16 23 5 188 21 237 21 102 2 357
-27 376 -43 6 -5 14 -5 18 -1 4 4 14 -2 22 -12 13 -19 14 -18 15 10 1 28 2 28
8 4 5 -23 31 -41 31 -22 0 4 18 6 40 4 22 -2 38 -7 36 -11 -7 -10 234 -4 324
8 41 6 104 13 140 16 36 3 79 10 95 15 48 15 210 50 252 54 92 10 326 65 359
84 16 10 13 11 -20 12 -22 0 -37 2 -34 5 15 15 675 38 1963 70 336 8 699 19
808 25 109 5 267 10 352 10 l154 0 1 609 0 609 -28 44 c-28 41 -70 119 -170
308 -24 47 -47 90 -51 95 -7 9 -97 177 -148 275 -12 25 -23 49 -23 54 0 5 -6
17 -14 25 -8 9 -34 53 -58 99 -71 137 -74 141 -114 168 -57 38 -92 74 -115
117 -10 20 -24 37 -30 37 -6 0 -8 4 -4 9 3 6 -9 37 -27 71 -22 42 -47 72 -81
97 l-50 37 -64 -22 c-70 -25 -80 -23 -127 27 -17 17 -35 31 -42 31 -12 0 -149
105 -176 136 -9 11 -16 36 -16 57 0 21 -2 41 -5 44 -3 3 -24 2 -46 -2 -40 -7
-60 -30 -41 -49 13 -13 13 -26 0 -26 -8 0 -106 69 -170 120 -14 11 -28 20 -31
20 -9 0 -163 -81 -169 -89 -3 -3 -25 -16 -50 -29 -123 -64 -250 -141 -250
-152 0 -5 9 -12 20 -15 11 -3 20 -11 20 -16 0 -6 -10 -3 -22 5 -34 24 -52 20
-131 -27 -39 -24 -99 -59 -132 -77 -144 -80 -176 -101 -170 -110 2 -4 18 -13
35 -20 16 -7 30 -16 30 -20 0 -4 -35 -20 -77 -34 -43 -15 -118 -43 -168 -62
-99 -37 -155 -51 -155 -38 0 11 34 42 79 74 l34 23 -49 22 c-56 25 -94 42
-179 80 -33 15 -76 34 -95 42 -19 9 -68 31 -109 49 -40 19 -81 34 -90 34 -10
0 -47 -28 -83 -62 -36 -35 -103 -98 -148 -141 -46 -42 -80 -80 -76 -84 3 -4
12 -1 18 5 7 7 17 12 22 12 6 0 2 -6 -9 -14 -11 -7 -32 -14 -47 -14 -14 0 -55
-3 -91 -6 -53 -6 -65 -5 -70 8 -7 18 -37 22 -37 5 0 -6 7 -9 15 -5 8 3 15 3
15 0 0 -7 -199 -101 -231 -109 -16 -4 -30 -2 -33 4 -4 6 -1 9 6 6 8 -3 36 6
63 20 28 14 56 25 63 25 6 0 12 5 12 10 0 6 -6 10 -14 10 -23 0 -206 61 -206
69 0 4 5 12 11 18 9 9 5 14 -17 18 -16 4 -56 15 -89 25 -101 31 -155 47 -275
81 -157 44 -180 54 -181 82 0 12 -3 38 -5 57 -3 19 -6 48 -7 64 -2 28 -6 30
-77 48 -173 42 -385 128 -316 128 9 0 16 5 16 12 0 7 11 24 25 38 20 21 23 29
13 37 -7 6 -168 62 -358 126 -190 64 -448 152 -575 196 -126 43 -279 96 -340
117 -60 20 -123 43 -140 49 -16 7 -91 33 -165 58 -74 25 -200 68 -279 96 -79
28 -145 50 -146 49 -1 -2 -9 -25 -19 -51 -10 -27 -20 -46 -23 -43 -3 3 2 21
11 40 9 19 16 40 16 48 0 8 -55 31 -151 63 -83 27 -153 53 -156 57 -7 13 -23
9 -23 -6 0 -8 -4 -17 -8 -20 -5 -3 -8 4 -8 16 1 18 -21 28 -164 77 -91 31
-170 60 -177 64 -12 7 -33 -47 -33 -85 0 -10 -5 -18 -10 -18 -10 0 -6 32 11
77 11 29 8 31 -202 103 -93 33 -174 62 -179 65 -6 4 -11 -8 -11 -27 -1 -18 -5
-46 -9 -63 -7 -23 -8 -14 -7 34 l2 64 -140 47 c-77 26 -173 59 -213 73 -82 29
-80 31 -85 -53 -3 -50 -3 -49 -5 17 l-2 71 -107 35 c-60 19 -160 53 -223 76
-63 23 -120 39 -127 37 -7 -3 -10 -26 -8 -68 l4 -63 -10 70 c-5 38 -13 72 -17
76 -6 6 -268 99 -387 137 -27 9 -52 19 -55 22 -3 3 -14 7 -25 8 -11 2 -25 8
-32 14 -9 7 -13 -1 -16 -29 l-4 -38 -1 38 c-1 20 -4 37 -6 37 -5 0 -528 178
-546 187 -8 3 -18 5 -23 5 -4 -1 -26 7 -50 17 -51 23 -260 97 -302 107 -16 4
-32 10 -35 13 -4 5 -148 55 -217 76 l-22 6 -1 -550z m627 262 c-3 -10 -5 -4
-5 12 0 17 2 24 5 18 2 -7 2 -21 0 -30z m10 -45 c-3 -8 -6 -5 -6 6 -1 11 2 17
5 13 3 -3 4 -12 1 -19z m30 -110 c-3 -8 -6 -5 -6 6 -1 11 2 17 5 13 3 -3 4
-12 1 -19z m-307 -58 c0 -5 -4 -10 -10 -10 -5 0 -10 5 -10 10 0 6 5 10 10 10
6 0 10 -4 10 -10z m857 -52 c-2 -13 -4 -3 -4 22 0 25 2 35 4 23 2 -13 2 -33 0
-45z m-797 31 c0 -5 -7 -9 -15 -9 -15 0 -20 12 -9 23 8 8 24 -1 24 -14z m-205
-9 c-3 -5 -11 -10 -16 -10 -6 0 -7 5 -4 10 3 6 11 10 16 10 6 0 7 -4 4 -10z
m565 -110 c0 -5 -2 -10 -4 -10 -3 0 -8 5 -11 10 -3 6 -1 10 4 10 6 0 11 -4 11
-10z m60 -10 c0 -5 -5 -10 -11 -10 -5 0 -7 5 -4 10 3 6 8 10 11 10 2 0 4 -4 4
-10z m907 -142 c-3 -8 -6 -5 -6 6 -1 11 2 17 5 13 3 -3 4 -12 1 -19z m900
-300 c-3 -8 -6 -5 -6 6 -1 11 2 17 5 13 3 -3 4 -12 1 -19z m-647 2 c0 -5 -2
-10 -4 -10 -3 0 -8 5 -11 10 -3 6 -1 10 4 10 6 0 11 -4 11 -10z m-1760 -90 c0
-5 -2 -10 -4 -10 -3 0 -8 5 -11 10 -3 6 -1 10 4 10 6 0 11 -4 11 -10z m2810
-29 c0 -6 -4 -13 -10 -16 -5 -3 -10 1 -10 9 0 9 5 16 10 16 6 0 10 -4 10 -9z
m376 -67 c-4 -14 -9 -24 -12 -21 -3 2 -2 17 2 31 3 15 9 25 11 22 3 -3 2 -17
-1 -32z m-2371 8 c-3 -3 -11 0 -18 7 -9 10 -8 11 6 5 10 -3 15 -9 12 -12z
m-599 -33 c3 -5 -9 -9 -25 -9 -20 0 -31 5 -31 14 0 15 46 11 56 -5z m714 -23
c0 -3 -4 -8 -10 -11 -5 -3 -10 -1 -10 4 0 6 5 11 10 11 6 0 10 -2 10 -4z m236
-75 c16 -5 57 -17 92 -26 34 -10 62 -22 62 -27 0 -5 -7 -22 -15 -38 -9 -17
-15 -32 -15 -35 1 -21 -2 -25 -15 -25 -19 0 -19 -7 -1 -25 15 -16 21 -7 56 85
19 48 64 109 74 99 2 -2 -16 -54 -39 -116 -61 -160 -61 -161 -28 -174 16 -6
53 -11 84 -12 32 -1 52 -5 45 -9 -16 -11 21 -10 42 1 9 5 26 5 37 0 16 -6 13
-8 -15 -9 -29 0 -32 -2 -18 -11 28 -16 118 -24 120 -10 0 6 1 17 2 24 1 6 4
14 7 17 3 3 18 40 34 83 15 43 32 80 36 83 12 7 12 6 -10 -56 -11 -30 -23 -73
-26 -95 -4 -22 -12 -45 -16 -51 -5 -6 -6 -19 -3 -29 6 -16 3 -17 -27 -11 -60
11 -73 14 -144 32 -38 9 -79 18 -90 20 -11 1 -22 3 -25 4 -3 1 -9 2 -14 1 -4
-1 -13 2 -20 7 -17 14 -142 35 -164 28 -13 -4 -22 -1 -26 9 -3 8 -12 15 -20
15 -8 0 -19 8 -25 17 -7 14 -12 15 -24 5 -11 -10 -17 -9 -26 2 -9 11 -9 15 1
18 8 3 6 13 -10 35 -20 28 -31 55 -16 40 8 -7 53 36 47 46 -2 4 3 7 12 7 12 0
14 4 5 19 -16 30 -12 47 13 59 28 14 29 14 63 3z m-282 -10 c4 -5 -3 -7 -14
-4 -23 6 -26 13 -6 13 8 0 17 -4 20 -9z m2964 -73 c-6 -18 -13 -27 -15 -21 -4
11 13 53 22 53 2 0 -1 -15 -7 -32z m-2841 -20 c-3 -8 -6 -5 -6 6 -1 11 2 17 5
13 3 -3 4 -12 1 -19z m28 -86 c-2 -2 -12 -1 -23 2 -13 4 -19 16 -19 32 l0 26
22 -28 c13 -16 22 -31 20 -32z m-189 29 c5 -5 18 -11 29 -14 20 -5 19 -5 -1
-6 -11 0 -29 6 -40 14 -10 8 -14 15 -8 15 5 0 14 -4 20 -9z m3285 -38 c-12
-20 -14 -14 -5 12 4 9 9 14 11 11 3 -2 0 -13 -6 -23z m-3343 -43 c10 0 13 -3
6 -10 -11 -11 -54 -2 -54 12 0 6 7 7 16 4 9 -3 23 -6 32 -6z m1120 -5 c1 -1
-5 -16 -15 -33 -21 -36 -11 -53 16 -28 11 10 25 15 31 11 6 -4 20 1 30 10 24
22 102 12 93 -11 -6 -17 -30 -19 -35 -2 -5 14 -38 4 -38 -12 0 -5 9 -10 19
-10 30 0 51 -11 51 -26 0 -8 5 -14 11 -14 6 0 9 9 6 20 -9 33 13 51 56 43 34
-5 38 -8 33 -29 -4 -14 -2 -24 4 -24 5 0 10 -9 10 -20 0 -24 -39 -36 -68 -21
-16 8 -21 7 -26 -4 -4 -11 2 -15 22 -15 15 0 36 -7 46 -15 18 -14 18 -17 3
-67 -9 -29 -21 -72 -27 -95 -6 -24 -18 -47 -28 -51 -9 -5 -59 -10 -110 -11
-73 -1 -99 2 -122 16 -39 23 -39 38 0 18 31 -16 159 -20 195 -6 15 6 4 11 -46
20 -36 6 -80 11 -98 11 -17 0 -50 9 -71 20 -32 17 -40 18 -40 6 0 -15 -14 -15
-77 -1 -27 6 -30 10 -19 21 8 7 22 44 32 81 28 107 42 136 62 128 40 -16 238
-62 246 -58 12 8 -16 23 -44 23 -31 1 -60 22 -60 44 0 9 -7 16 -15 16 -9 0
-12 -6 -9 -15 4 -10 0 -15 -11 -15 -17 0 -105 21 -105 25 0 1 7 16 16 33 8 18
12 37 8 43 -5 9 4 10 32 4 21 -4 40 -8 42 -10z m682 -49 c0 -3 -4 -8 -10 -11
-5 -3 -10 -1 -10 4 0 6 5 11 10 11 6 0 10 -2 10 -4z m97 -22 c-3 -3 -12 -4
-19 -1 -8 3 -5 6 6 6 11 1 17 -2 13 -5z m-46 -105 c-6 -28 -7 -45 -1 -47 18
-6 10 -22 -10 -22 -25 0 -26 29 -5 89 8 23 14 43 15 46 2 25 4 26 7 4 2 -14
-1 -45 -6 -70z m146 75 c-3 -3 -12 -4 -19 -1 -8 3 -5 6 6 6 11 1 17 -2 13 -5z
m-570 -46 c-3 -7 -5 -2 -5 12 0 14 2 19 5 13 2 -7 2 -19 0 -25z m272 -25 c-3
-37 1 -44 28 -41 22 2 28 -1 28 -17 0 -11 5 -19 10 -18 6 1 11 -7 11 -17 0
-10 -5 -16 -10 -13 -5 4 -7 -1 -3 -10 8 -20 -6 -22 -22 -3 -6 7 -37 16 -68 19
-84 9 -111 47 -43 62 17 4 38 17 48 31 21 28 24 29 21 7z m230 -51 c0 -20 -3
-31 -6 -24 -2 6 -13 12 -24 12 -10 0 -19 5 -19 10 0 6 7 10 15 10 8 0 14 3 14
8 -3 19 2 33 11 27 6 -3 10 -23 9 -43z m-989 28 c0 -5 -5 -10 -11 -10 -5 0 -7
5 -4 10 3 6 8 10 11 10 2 0 4 -4 4 -10z m-965 -20 c3 -5 -1 -10 -10 -10 -9 0
-13 5 -10 10 3 6 8 10 10 10 2 0 7 -4 10 -10z m444 -19 c9 -6 10 -11 2 -15 -6
-4 -11 -3 -11 3 0 6 -7 8 -15 5 -8 -4 -15 -1 -15 5 0 13 20 14 39 2z m496 -21
c-3 -5 -12 -10 -18 -10 -7 0 -6 4 3 10 19 12 23 12 15 0z m472 -42 c-3 -7 -5
-2 -5 12 0 14 2 19 5 13 2 -7 2 -19 0 -25z m113 23 c0 -6 8 -10 18 -9 9 0 41
-5 71 -11 61 -12 99 -13 61 -1 -24 8 -24 8 7 9 17 1 35 -3 38 -9 3 -5 1 -10
-6 -10 -7 0 -4 -7 7 -15 15 -12 16 -14 3 -15 -24 0 -131 21 -154 30 -11 5 -32
11 -47 14 -29 7 -39 26 -13 26 8 0 15 -4 15 -9z m1187 3 c-3 -3 -12 -4 -19 -1
-8 3 -5 6 6 6 11 1 17 -2 13 -5z m-867 -44 c0 -16 5 -30 10 -30 6 0 10 -7 10
-15 0 -8 -4 -15 -10 -15 -5 0 -10 7 -10 15 0 8 -4 15 -10 15 -5 0 -10 14 -10
30 0 17 5 30 10 30 6 0 10 -13 10 -30z m127 6 c-10 -21 -13 -22 -21 -9 -5 10
-4 18 5 24 23 15 28 10 16 -15z m788 15 c3 -5 1 -12 -5 -16 -5 -3 -10 -2 -10
4 0 5 -10 12 -22 14 -20 4 -20 4 4 6 15 0 29 -3 33 -8z m55 3 c0 -3 -7 -12
-15 -21 -20 -19 -32 -10 -14 11 14 15 29 21 29 10z m-1899 -27 c-10 -9 -11 -8
-5 6 3 10 9 15 12 12 3 -3 0 -11 -7 -18z m-411 9 c0 -3 -4 -8 -10 -11 -5 -3
-10 -1 -10 4 0 6 5 11 10 11 6 0 10 -2 10 -4z m2380 -16 c29 -22 17 -26 -19
-6 -14 8 -32 12 -40 9 -14 -4 -14 -4 -1 6 21 15 31 13 60 -9z m-2025 0 c-3 -5
-10 -10 -16 -10 -5 0 -9 5 -9 10 0 6 7 10 16 10 8 0 12 -4 9 -10z m1075 -6 c0
-8 -4 -12 -10 -9 -5 3 -10 10 -10 16 0 5 5 9 10 9 6 0 10 -7 10 -16z m75 -5
c4 -11 4 -23 1 -26 -10 -11 16 -33 38 -33 12 0 26 -4 32 -9 5 -5 18 -11 29
-14 11 -2 -3 -3 -32 -2 -65 4 -88 16 -80 44 3 13 -1 24 -10 30 -9 4 -13 13 -9
20 11 17 24 13 31 -10z m633 5 c12 -8 27 -12 33 -8 6 3 15 1 19 -5 4 -7 26
-15 50 -18 l42 -6 -6 -58 c-4 -35 -3 -59 2 -59 6 0 13 31 17 70 l7 70 25 -20
c14 -11 34 -20 44 -20 10 0 21 -5 25 -11 3 -6 16 -8 29 -5 14 4 28 0 35 -9 7
-8 19 -15 26 -15 11 0 14 -17 14 -70 0 -38 -4 -70 -9 -70 -5 0 -7 -9 -4 -20 4
-14 0 -20 -11 -20 -9 0 -16 -5 -16 -11 0 -6 7 -9 15 -6 8 4 17 2 20 -3 4 -6
16 -10 28 -10 15 0 18 -3 10 -11 -7 -7 -17 -8 -30 -1 -10 6 -48 15 -83 21 -36
7 -74 16 -85 21 -11 5 -42 14 -70 19 -76 15 -187 42 -213 52 -17 7 -21 13 -14
26 5 10 8 37 8 61 -1 24 2 46 6 48 15 9 8 34 -9 35 -13 0 -11 3 7 10 14 6 28
17 33 25 10 18 27 18 55 -2z m-851 -10 c-3 -3 -12 -4 -19 -1 -8 3 -5 6 6 6 11
1 17 -2 13 -5z m128 -20 c8 -9 24 -14 34 -11 13 3 21 -1 24 -13 4 -16 2 -16
-41 -1 -25 9 -47 22 -50 29 -5 17 14 15 33 -4z m-1085 -4 c0 -5 -5 -10 -11
-10 -5 0 -7 5 -4 10 3 6 8 10 11 10 2 0 4 -4 4 -10z m-35 -30 c18 -8 17 -9 -7
-9 -15 -1 -30 4 -33 9 -7 12 12 12 40 0z m1278 -70 c3 -11 2 -20 -3 -20 -4 0
-10 11 -12 25 -6 29 7 25 15 -5z m-1153 16 c0 -11 -19 -15 -25 -6 -3 5 1 10 9
10 9 0 16 -2 16 -4z m1100 -26 c0 -5 -4 -10 -10 -10 -5 0 -10 5 -10 10 0 6 5
10 10 10 6 0 10 -4 10 -10z m-1230 -21 c0 -6 -4 -7 -10 -4 -5 3 -10 11 -10 16
0 6 5 7 10 4 6 -3 10 -11 10 -16z m-1015 -9 c3 -5 -1 -10 -9 -10 -9 0 -16 5
-16 10 0 6 4 10 9 10 6 0 13 -4 16 -10z m8645 6 c0 -9 -39 -13 -51 -5 -10 6
-4 9 19 9 17 0 32 -2 32 -4z m-6553 -22 c-3 -3 -12 -4 -19 -1 -8 3 -5 6 6 6
11 1 17 -2 13 -5z m-90 -40 c-3 -3 -12 -4 -19 -1 -8 3 -5 6 6 6 11 1 17 -2 13
-5z m1755 -19 c28 -5 36 -14 52 -51 11 -26 16 -54 12 -69 -4 -14 -2 -25 4 -25
5 0 13 18 16 41 10 59 27 33 22 -35 l-3 -55 75 -21 c41 -12 89 -25 105 -30
l30 -8 -28 -1 c-16 -1 -37 4 -47 9 -22 12 -190 51 -235 55 -41 3 -105 31 -105
46 0 7 7 8 18 4 44 -18 45 -16 7 14 -52 43 -54 45 -28 37 19 -6 21 -4 18 28
-4 38 20 80 40 72 8 -3 29 -8 47 -11z m-2582 -21 c0 -8 -5 -14 -12 -14 -6 0
-8 3 -5 7 4 3 2 12 -5 20 -8 11 -7 12 6 7 9 -3 16 -12 16 -20z m2690 2 c0 -3
-4 -8 -10 -11 -5 -3 -10 -1 -10 4 0 6 5 11 10 11 6 0 10 -2 10 -4z m-4570 -42
c0 -2 -12 -4 -26 -4 -14 0 -23 4 -20 9 6 8 46 4 46 -5z m2987 10 c-3 -3 -12
-4 -19 -1 -8 3 -5 6 6 6 11 1 17 -2 13 -5z m2140 -44 c11 0 28 -6 39 -14 15
-12 8 -12 -38 1 -32 9 -58 20 -58 25 0 5 9 4 19 -2 11 -5 28 -10 38 -10z
m-5057 -10 c-6 -4 -11 -10 -11 -14 4 -29 -13 -37 -23 -11 -9 25 3 43 25 38 14
-4 17 -8 9 -13z m8637 14 c-3 -3 -12 -4 -19 -1 -8 3 -5 6 6 6 11 1 17 -2 13
-5z m-4922 -14 c3 -5 1 -10 -4 -10 -6 0 -11 5 -11 10 0 6 2 10 4 10 3 0 8 -4
11 -10z m5019 -5 c3 -8 1 -15 -4 -15 -6 0 -10 7 -10 15 0 8 2 15 4 15 2 0 6
-7 10 -15z m-5884 -5 c0 -5 -2 -10 -4 -10 -3 0 -8 5 -11 10 -3 6 -1 10 4 10 6
0 11 -4 11 -10z m1877 -12 c-3 -8 -6 -5 -6 6 -1 11 2 17 5 13 3 -3 4 -12 1
-19z m3948 16 c13 -5 14 -8 3 -15 -19 -13 -28 -11 -28 6 0 17 2 18 25 9z
m-6610 -14 c3 -5 1 -10 -4 -10 -6 0 -11 5 -11 10 0 6 2 10 4 10 3 0 8 -4 11
-10z m1645 -30 c0 -5 -2 -10 -4 -10 -3 0 -8 5 -11 10 -3 6 -1 10 4 10 6 0 11
-4 11 -10z m-59 -23 c-13 -13 -26 -3 -16 12 3 6 11 8 17 5 6 -4 6 -10 -1 -17z
m1431 1 c4 -7 8 -34 8 -60 0 -26 5 -50 10 -53 12 -7 14 -26 3 -24 -20 3 -24
-2 -13 -16 28 -34 40 -17 40 56 0 52 3 70 13 66 6 -2 11 -12 9 -21 -4 -24 26
-31 48 -11 19 18 20 17 20 -6 0 -13 3 -41 6 -61 5 -31 4 -38 -10 -38 -36 0
-12 -21 47 -39 43 -14 54 -20 34 -20 -15 -1 -35 3 -45 8 -30 15 -156 45 -189
45 -18 0 -33 3 -33 8 0 4 -9 8 -20 8 -14 0 -20 7 -21 23 -1 12 -3 53 -4 90
l-3 69 46 -6 c25 -3 49 -11 54 -18z m-1555 6 c-3 -3 -12 -4 -19 -1 -8 3 -5 6
6 6 11 1 17 -2 13 -5z m-1917 -34 c0 -5 -9 -10 -21 -10 -11 0 -17 5 -14 10 3
6 13 10 21 10 8 0 14 -4 14 -10z m6844 -10 c-10 -4 -21 -6 -24 -3 -8 7 24 22
34 16 5 -4 1 -10 -10 -13z m-4754 -20 c0 -5 -4 -10 -10 -10 -5 0 -10 5 -10 10
0 6 5 10 10 10 6 0 10 -4 10 -10z m120 -20 c0 -5 -2 -10 -4 -10 -3 0 -8 5 -11
10 -3 6 -1 10 4 10 6 0 11 -4 11 -10z m1835 -7 c18 -14 18 -15 2 -9 -10 3 -23
6 -28 6 -5 0 -9 5 -9 10 0 14 12 12 35 -7z m-1955 -23 c0 -5 -7 -10 -16 -10
-8 0 -12 5 -9 10 3 6 10 10 16 10 5 0 9 -4 9 -10z m713 -15 c4 -8 2 -17 -3
-20 -6 -4 -10 3 -10 14 0 25 6 27 13 6z m2954 -7 c-3 -8 -6 -5 -6 6 -1 11 2
17 5 13 3 -3 4 -12 1 -19z m-3000 6 c-3 -3 -12 -4 -19 -1 -8 3 -5 6 6 6 11 1
17 -2 13 -5z m-3010 -26 c-3 -8 -6 -5 -6 6 -1 11 2 17 5 13 3 -3 4 -12 1 -19z
m673 12 c0 -5 -4 -10 -10 -10 -5 0 -10 5 -10 10 0 6 5 10 10 10 6 0 10 -4 10
-10z m3650 -74 c0 -20 5 -36 10 -36 9 0 15 41 12 83 -1 9 4 17 12 17 9 0 12
-8 8 -25 -4 -25 23 -59 39 -49 3 2 9 -20 12 -48 4 -28 12 -56 19 -61 8 -5 -2
-7 -27 -3 -22 3 -46 6 -52 6 -8 0 -13 14 -13 35 0 19 -4 35 -8 35 -5 0 -7 -13
-4 -30 5 -34 -1 -36 -52 -15 -34 14 -53 34 -21 22 12 -5 13 4 8 58 -7 81 8
109 38 71 11 -14 19 -40 19 -60z m-1400 64 c0 -5 -5 -10 -11 -10 -5 0 -7 5 -4
10 3 6 8 10 11 10 2 0 4 -4 4 -10z m232 -2 c6 -17 -1 -38 -13 -38 -5 0 -9 11
-9 25 0 26 14 34 22 13z m2874 -30 c-6 -4 7 -8 29 -9 l40 -1 -40 -9 c-22 -4
-49 -8 -59 -8 -18 -1 -18 0 -3 17 10 10 17 24 17 31 0 9 3 9 14 -1 10 -9 11
-15 2 -20z m-5749 16 c-3 -3 -12 -4 -19 -1 -8 3 -5 6 6 6 11 1 17 -2 13 -5z
m3233 -4 c8 -5 11 -10 5 -10 -5 0 -17 5 -25 10 -8 5 -10 10 -5 10 6 0 17 -5
25 -10z m-270 -10 c0 -5 -5 -10 -11 -10 -5 0 -7 5 -4 10 3 6 8 10 11 10 2 0 4
-4 4 -10z m2913 -7 c-7 -2 -19 -2 -25 0 -7 3 -2 5 12 5 14 0 19 -2 13 -5z m73
-3 c42 -16 23 -21 -21 -5 -22 8 -32 14 -23 15 9 0 29 -5 44 -10z m1464 2 c0
-5 -16 -13 -35 -19 -28 -9 -36 -8 -47 6 -7 9 -9 13 -5 10 5 -4 20 -3 35 1 37
11 52 12 52 2z m-4685 -12 c3 -5 -1 -10 -9 -10 -9 0 -16 5 -16 10 0 6 4 10 9
10 6 0 13 -4 16 -10z m-2570 -10 c3 -5 2 -10 -4 -10 -5 0 -13 5 -16 10 -3 6
-2 10 4 10 5 0 13 -4 16 -10z m5505 0 c0 -5 -12 -10 -27 -9 l-28 1 25 8 c14 4
26 8 28 9 1 1 2 -3 2 -9z m1670 -11 c0 -12 -37 -12 -44 0 -7 11 14 20 32 13 6
-2 12 -8 12 -13z m-7295 1 c3 -5 -1 -10 -10 -10 -9 0 -13 5 -10 10 3 6 8 10
10 10 2 0 7 -4 10 -10z m7509 -5 c-4 -9 0 -15 10 -15 9 0 16 -4 16 -8 0 -5 13
-29 30 -53 26 -39 28 -45 14 -56 -9 -6 -35 -15 -57 -18 -23 -4 -48 -12 -54
-17 -7 -6 -13 -7 -13 -3 0 4 -6 3 -12 -2 -7 -6 -35 -16 -63 -22 -27 -7 -67
-19 -88 -27 -41 -15 -91 -19 -69 -6 9 6 6 23 -14 70 -33 75 -28 83 61 107 36
10 65 23 65 29 1 16 40 -34 40 -50 0 -8 5 -14 10 -14 6 0 10 -8 10 -18 0 -22
22 -72 33 -72 10 0 9 17 -3 38 -52 95 -48 113 29 136 59 19 61 19 55 1z
m-1976 -2 c-16 -2 -40 -2 -55 0 -16 2 -3 4 27 4 30 0 43 -2 28 -4z m509 -19
c-3 -3 -12 -4 -19 -1 -8 3 -5 6 6 6 11 1 17 -2 13 -5z m-127 -62 c5 -20 8 -37
7 -38 -12 -9 -47 -13 -47 -5 0 6 5 11 10 11 10 0 8 21 -7 75 -5 17 -4 18 10 6
9 -7 21 -29 27 -49z m-2340 18 c0 -5 -2 -10 -4 -10 -3 0 -8 5 -11 10 -3 6 -1
10 4 10 6 0 11 -4 11 -10z m-2906 -25 c-6 -16 -24 -21 -24 -7 0 11 11 22 21
22 5 0 6 -7 3 -15z m959 -12 c-7 -2 -19 -2 -25 0 -7 3 -2 5 12 5 14 0 19 -2
13 -5z m-745 -14 c-2 -6 -8 -10 -13 -10 -5 0 -11 4 -13 10 -2 6 4 11 13 11 9
0 15 -5 13 -11z m4324 -24 c4 -15 13 -32 20 -37 21 -13 -9 -27 -40 -19 -33 9
-45 49 -23 73 21 22 33 18 43 -17z m-4076 -20 c-3 -8 -10 -15 -16 -15 -14 0
-12 37 3 43 15 5 21 -8 13 -28z m1464 15 c0 -5 -2 -10 -4 -10 -3 0 -8 5 -11
10 -3 6 -1 10 4 10 6 0 11 -4 11 -10z m-370 -4 c0 -2 -7 -6 -15 -10 -8 -3 -15
-1 -15 4 0 6 7 10 15 10 8 0 15 -2 15 -4z m1315 -6 c3 -5 1 -10 -4 -10 -6 0
-11 5 -11 10 0 6 2 10 4 10 3 0 8 -4 11 -10z m-2325 -10 c0 -5 -4 -10 -10 -10
-5 0 -10 5 -10 10 0 6 5 10 10 10 6 0 10 -4 10 -10z m5450 -15 c0 -8 -7 -15
-15 -15 -13 0 -14 3 -3 15 16 18 18 18 18 0z m-4455 -15 c3 -5 1 -10 -4 -10
-6 0 -11 5 -11 10 0 6 2 10 4 10 3 0 8 -4 11 -10z m-588 -42 c-3 -8 -6 -5 -6
6 -1 11 2 17 5 13 3 -3 4 -12 1 -19z m5233 12 c0 -5 -4 -10 -10 -10 -5 0 -10
5 -10 10 0 6 5 10 10 10 6 0 10 -4 10 -10z m-35 -30 c16 -31 40 -39 48 -17 3
6 6 2 6 -10 1 -13 6 -23 11 -23 6 0 10 -4 10 -9 0 -9 -117 -51 -143 -51 -8 0
-43 -9 -78 -20 -35 -11 -70 -19 -79 -16 -9 2 -6 4 7 5 23 1 43 21 21 21 -8 0
-14 8 -15 18 -1 9 -4 33 -8 52 -6 33 -4 37 27 54 18 10 46 16 63 14 26 -3 32
-10 49 -55 19 -55 42 -73 33 -26 -3 16 1 32 9 40 10 11 14 11 14 2 0 -7 3 -9
6 -6 4 4 1 13 -6 22 -11 14 -14 13 -26 -2 -12 -17 -13 -17 -14 4 0 19 10 27
42 32 4 0 14 -12 23 -29z m-4225 10 c0 -5 -4 -10 -10 -10 -5 0 -10 5 -10 10 0
6 5 10 10 10 6 0 10 -4 10 -10z m394 4 c23 -9 20 -23 -4 -17 -11 3 -20 9 -20
14 0 11 3 11 24 3z m1093 -16 c-3 -8 -6 -5 -6 6 -1 11 2 17 5 13 3 -3 4 -12 1
-19z m3453 7 c0 -8 -2 -15 -4 -15 -2 0 -6 7 -10 15 -3 8 -1 15 4 15 6 0 10 -7
10 -15z m-7093 -21 c-3 -3 -12 -4 -19 -1 -8 3 -5 6 6 6 11 1 17 -2 13 -5z
m4018 -70 c16 -12 17 -18 8 -34 -10 -14 -10 -20 0 -23 7 -3 5 -6 -5 -6 -19 -1
-26 8 -38 49 -10 34 2 39 35 14z m74 -57 c6 -27 9 -53 6 -57 -3 -5 3 -14 12
-20 14 -8 5 -9 -37 -4 -70 8 -85 17 -40 24 24 4 34 10 31 20 -13 55 -12 87 2
87 9 0 18 -18 26 -50z m268 -29 c-3 -8 -6 -5 -6 6 -1 11 2 17 5 13 3 -3 4 -12
1 -19z m-6467 -4 c0 -2 -15 -4 -32 -4 -23 0 -29 3 -19 9 12 8 51 4 51 -5z
m4611 -11 c-5 -26 -6 -26 -9 -5 -2 12 -10 22 -18 22 -8 0 -13 -4 -9 -9 3 -5 1
-12 -5 -16 -11 -7 -14 18 -3 28 3 4 16 7 28 7 19 0 21 -4 16 -27z m1939 -50
c0 -1 -7 0 -15 3 -10 4 -15 19 -15 43 l1 36 14 -40 c8 -22 15 -41 15 -42z
m-6500 52 c-7 -8 -16 -15 -21 -15 -5 0 -6 7 -3 15 4 8 13 15 21 15 13 0 13 -3
3 -15z m6105 5 c3 -5 1 -10 -4 -10 -6 0 -11 5 -11 10 0 6 2 10 4 10 3 0 8 -4
11 -10z m331 -27 c-11 -11 -17 4 -9 23 7 18 8 18 11 1 2 -10 1 -21 -2 -24z
m1951 15 c-3 -8 -6 -5 -6 6 -1 11 2 17 5 13 3 -3 4 -12 1 -19z m-8270 -10 c-3
-29 -15 -38 -50 -38 -19 0 -27 4 -23 13 3 6 9 20 12 30 4 11 17 17 35 17 24 0
28 -4 26 -22z m-183 -2 c-6 -15 -42 -28 -55 -20 -17 10 5 34 32 34 20 0 27 -4
23 -14z m96 7 c0 -14 -19 -38 -25 -32 -8 8 5 39 16 39 5 0 9 -3 9 -7z m7229
-23 c5 -16 16 -30 23 -30 7 0 5 -5 -5 -11 -23 -13 -33 -4 -42 39 -8 41 9 43
24 2z m-7059 10 c0 -5 -2 -10 -4 -10 -3 0 -8 5 -11 10 -3 6 -1 10 4 10 6 0 11
-4 11 -10z m75 -16 c0 -10 -7 -20 -16 -22 -13 -2 -15 3 -11 23 5 29 27 29 27
-1z m6860 4 c10 -41 10 -77 0 -78 -11 -2 -35 80 -28 93 8 14 23 7 28 -15z
m-1580 2 c-3 -5 -12 -10 -18 -10 -7 0 -6 4 3 10 19 12 23 12 15 0z m-5375 -15
c0 -8 -4 -15 -10 -15 -5 0 -10 7 -10 15 0 8 5 15 10 15 6 0 10 -7 10 -15z
m7767 9 c-3 -3 -12 -4 -19 -1 -8 3 -5 6 6 6 11 1 17 -2 13 -5z m-7421 -20 c-3
-9 -6 -20 -6 -25 0 -5 -11 -9 -25 -9 -14 0 -25 4 -25 9 0 25 15 41 37 41 19 0
24 -4 19 -16z m-116 -22 c-25 -4 -35 2 -26 17 5 7 13 7 27 -2 20 -12 20 -12
-1 -15z m254 -1 c-31 -32 -47 -29 -38 7 5 17 14 22 37 22 l30 0 -29 -29z m85
20 c12 -7 12 -13 3 -24 -7 -7 -9 -17 -5 -20 3 -4 -6 -7 -21 -7 -23 0 -27 4
-24 23 5 33 22 44 47 28z m91 -5 c0 -3 -4 -16 -10 -30 -7 -19 -17 -26 -35 -26
-23 0 -25 3 -19 23 4 12 12 25 18 29 12 8 46 11 46 4z m-280 -16 c0 -5 -5 -10
-11 -10 -5 0 -7 5 -4 10 3 6 8 10 11 10 2 0 4 -4 4 -10z m7257 4 c-3 -3 -12
-4 -19 -1 -8 3 -5 6 6 6 11 1 17 -2 13 -5z m-3020 -10 c-3 -3 -12 -4 -19 -1
-8 3 -5 6 6 6 11 1 17 -2 13 -5z m33 -10 c0 -8 -5 -12 -10 -9 -6 4 -8 11 -5
16 9 14 15 11 15 -7z m-3570 -24 c0 -5 -7 -10 -15 -10 -8 0 -15 5 -15 10 0 6
7 10 15 10 8 0 15 -4 15 -10z m5293 3 c-7 -2 -21 -2 -30 0 -10 3 -4 5 12 5 17
0 24 -2 18 -5z m-5222 -30 c-6 -20 -13 -27 -27 -25 -28 6 -31 12 -12 26 10 7
15 16 11 19 -3 4 3 7 14 7 18 0 20 -4 14 -27z m69 9 c0 -15 -28 -47 -35 -40
-8 8 13 48 25 48 6 0 10 -4 10 -8z m-143 -17 c-5 -16 -37 -18 -37 -3 0 8 9 14
20 14 11 0 19 -5 17 -11z m193 -11 c0 -8 -7 -14 -15 -14 -15 0 -21 21 -9 33
10 9 24 -2 24 -19z m2737 4 c-3 -8 -6 -5 -6 6 -1 11 2 17 5 13 3 -3 4 -12 1
-19z m777 11 c-4 -7 0 -9 14 -5 28 9 58 -8 77 -44 15 -28 14 -30 -8 -36 -14
-3 -39 -4 -58 -2 -32 3 -34 5 -34 41 1 33 -2 37 -25 38 -24 1 -23 2 5 9 17 4
31 8 33 9 2 0 0 -4 -4 -10z m-3294 -14 c0 -9 -9 -15 -25 -15 -18 0 -23 4 -19
15 4 8 15 15 25 15 10 0 19 -7 19 -15z m-80 -26 c0 -10 -33 -12 -43 -3 -3 3 0
12 6 19 12 13 37 2 37 -16z m707 9 c-3 -8 -6 -5 -6 6 -1 11 2 17 5 13 3 -3 4
-12 1 -19z m2828 12 c-16 -7 -13 -9 17 -9 30 -1 37 -5 41 -23 3 -19 5 -17 6 7
2 26 3 27 11 10 10 -24 13 -224 2 -210 -4 6 -25 11 -47 13 -22 2 -42 6 -45 9
-8 8 -17 145 -12 181 4 25 9 32 26 31 21 0 21 -1 1 -9z m2253 3 c-10 -2 -26
-2 -35 0 -10 3 -2 5 17 5 19 0 27 -2 18 -5z m1457 -13 c3 -5 2 -10 -4 -10 -5
0 -13 5 -16 10 -3 6 -2 10 4 10 5 0 13 -4 16 -10z m-8921 -15 c-4 -8 -13 -15
-21 -15 -13 0 -13 3 -3 15 7 8 16 15 21 15 5 0 6 -7 3 -15z m9066 -1 c0 -8 -5
-12 -10 -9 -6 4 -8 11 -5 16 9 14 15 11 15 -7z m-7196 -9 c-4 -8 -8 -15 -10
-15 -2 0 -4 7 -4 15 0 8 4 15 10 15 5 0 7 -7 4 -15z m256 3 c0 -23 -18 -41
-33 -35 -22 8 -10 47 14 47 11 0 19 -6 19 -12z m112 -7 c17 -15 -14 -34 -61
-39 -53 -5 -55 -3 -45 36 6 21 10 22 53 16 25 -3 49 -9 53 -13z m55 -18 c-5
-37 -37 -45 -37 -10 0 23 10 34 33 36 4 1 6 -11 4 -26z m163 -18 c0 -18 -5
-25 -20 -25 -21 0 -24 8 -14 34 10 25 34 19 34 -9z m164 -10 c-4 -8 -11 -12
-18 -8 -6 4 -5 -1 3 -10 12 -15 11 -17 -8 -17 -24 0 -25 4 -11 31 13 22 42 26
34 4z m2136 5 c0 -5 -4 -10 -10 -10 -5 0 -10 5 -10 10 0 6 5 10 10 10 6 0 10
-4 10 -10z m2188 -15 c-3 -3 -9 2 -12 12 -6 14 -5 15 5 6 7 -7 10 -15 7 -18z
m391 -20 c0 -5 -4 -3 -9 5 -5 8 -9 22 -9 30 0 16 17 -16 18 -35z m-4501 2 c2
-18 -1 -27 -10 -27 -8 0 -15 13 -16 31 -3 39 22 35 26 -4z m2911 19 c0 -5 5
-13 13 -17 10 -7 9 -9 -4 -9 -29 0 -69 19 -63 31 8 12 56 8 54 -5z m108 8 c-3
-3 -12 -4 -19 -1 -8 3 -5 6 6 6 11 1 17 -2 13 -5z m-3141 -41 c-10 -10 -19 5
-10 18 6 11 8 11 12 0 2 -7 1 -15 -2 -18z m214 2 c0 -17 -4 -23 -15 -19 -11 5
-12 11 -4 25 13 26 19 24 19 -6z m2938 13 c7 -7 12 -32 12 -57 0 -26 3 -70 6
-98 7 -53 7 -53 42 -53 19 0 33 -3 30 -6 -10 -9 -178 8 -172 18 3 5 12 7 20 4
21 -8 24 7 15 65 -24 142 -24 139 7 139 15 0 33 -5 40 -12z m-3093 -8 c3 -5
-1 -10 -10 -10 -9 0 -13 5 -10 10 3 6 8 10 10 10 2 0 7 -4 10 -10z m205 3 c0
-5 -5 -15 -10 -23 -8 -12 -10 -11 -10 8 0 12 5 22 10 22 6 0 10 -3 10 -7z
m100 -14 c0 -5 -4 -9 -10 -9 -5 0 -10 7 -10 16 0 8 5 12 10 9 6 -3 10 -10 10
-16z m50 -13 c0 -17 -14 -29 -23 -20 -8 8 3 34 14 34 5 0 9 -6 9 -14z m137
-16 c-1 -11 -7 -20 -13 -20 -7 0 -10 8 -7 20 3 11 9 20 14 20 4 0 7 -9 6 -20z
m96 -10 c-3 -11 -9 -20 -14 -20 -10 0 -12 33 -3 43 12 12 22 -3 17 -23z m95
-8 c3 -17 -2 -22 -17 -22 -22 0 -25 8 -15 35 9 22 28 14 32 -13z m75 -12 c-7
-28 -13 -25 -13 6 0 14 4 23 9 20 5 -3 7 -15 4 -26z m62 -1 c0 -7 -8 -15 -17
-17 -18 -3 -25 18 -11 32 10 10 28 1 28 -15z m1125 9 c0 -5 -16 -8 -35 -8 -19
0 -35 4 -35 8 0 4 16 7 35 7 19 0 35 -3 35 -7z m-1095 -18 c3 -5 1 -10 -4 -10
-6 0 -11 5 -11 10 0 6 2 10 4 10 3 0 8 -4 11 -10z m135 -5 c0 -8 -4 -15 -10
-15 -5 0 -10 7 -10 15 0 8 5 15 10 15 6 0 10 -7 10 -15z m2405 5 c3 -5 1 -10
-4 -10 -6 0 -11 5 -11 10 0 6 2 10 4 10 3 0 8 -4 11 -10z m-2325 -15 c0 -8 -7
-15 -15 -15 -9 0 -12 6 -9 15 4 8 10 15 15 15 5 0 9 -7 9 -15z m36 -22 c-11
-11 -19 6 -11 24 8 17 8 17 12 0 3 -10 2 -21 -1 -24z m-76 17 c0 -5 -5 -10
-11 -10 -5 0 -7 5 -4 10 3 6 8 10 11 10 2 0 4 -4 4 -10z m154 -5 c-4 -8 -8
-15 -10 -15 -2 0 -4 7 -4 15 0 8 4 15 10 15 5 0 7 -7 4 -15z m86 5 c0 -5 8
-10 18 -11 14 0 14 -2 -3 -9 -30 -13 -35 -12 -35 10 0 11 5 20 10 20 6 0 10
-4 10 -10z m1090 -5 c30 -3 78 -8 105 -10 28 -3 65 -10 83 -16 18 -6 44 -8 58
-5 15 4 24 2 24 -5 0 -8 -16 -10 -52 -5 -29 3 -109 12 -178 20 -69 7 -126 14
-128 15 -10 4 11 19 21 16 7 -2 37 -7 67 -10z m-1010 -15 c0 -11 -7 -20 -15
-20 -15 0 -21 21 -8 33 12 13 23 7 23 -13z m128 -8 c5 -15 32 -16 32 -2 0 18
53 5 56 -13 1 -9 -2 -17 -7 -17 -5 0 -9 6 -9 13 0 9 -2 9 -8 0 -4 -7 -31 -11
-69 -9 -49 1 -66 6 -77 21 -14 18 -15 18 -16 3 0 -26 -20 -22 -20 3 0 20 4 21
57 17 31 -3 59 -10 61 -16z m-2228 -12 c0 -5 -2 -10 -4 -10 -3 0 -8 5 -11 10
-3 6 -1 10 4 10 6 0 11 -4 11 -10z m2520 -14 c0 -19 0 -19 13 -1 13 17 14 17
20 -4 5 -19 1 -21 -39 -21 -35 0 -44 4 -44 18 -1 16 -1 16 -11 0 -9 -16 -11
-16 -29 0 -24 20 -12 27 50 27 33 0 40 -3 40 -19z m-130 -1 c0 -10 -10 -15
-30 -15 -16 0 -30 5 -30 11 0 6 9 8 20 4 11 -4 20 -2 20 4 0 6 5 11 10 11 6 0
10 -7 10 -15z m236 -32 c-11 -11 -19 6 -11 24 8 17 8 17 12 0 3 -10 2 -21 -1
-24z m1537 20 c-7 -2 -19 -2 -25 0 -7 3 -2 5 12 5 14 0 19 -2 13 -5z m-417
-14 c9 -15 -14 -38 -24 -23 -4 6 -16 16 -27 22 -18 10 -17 11 12 12 17 0 35
-5 39 -11z m264 -25 c0 -8 -4 -14 -10 -14 -5 0 -10 9 -10 21 0 11 5 17 10 14
6 -3 10 -13 10 -21z m-3130 6 c0 -5 -2 -10 -4 -10 -3 0 -8 5 -11 10 -3 6 -1
10 4 10 6 0 11 -4 11 -10z m1047 -72 c-8 -24 -12 -28 -15 -15 -5 23 4 47 17
47 6 0 5 -13 -2 -32z m2243 12 c0 -5 -2 -10 -4 -10 -3 0 -8 5 -11 10 -3 6 -1
10 4 10 6 0 11 -4 11 -10z m-2010 -4 c0 -11 -19 -15 -25 -6 -3 5 1 10 9 10 9
0 16 -2 16 -4z m1185 -6 c3 -5 1 -10 -4 -10 -6 0 -11 5 -11 10 0 6 2 10 4 10
3 0 8 -4 11 -10z m-35 -32 c0 -5 -4 -8 -10 -8 -5 0 -10 10 -10 23 0 18 2 19
10 7 5 -8 10 -18 10 -22z m-1455 13 c3 -5 1 -12 -5 -16 -5 -3 -10 1 -10 9 0
18 6 21 15 7z m2495 -11 c0 -5 -2 -10 -4 -10 -3 0 -8 5 -11 10 -3 6 -1 10 4
10 6 0 11 -4 11 -10z m-913 -26 c-3 -3 -12 -4 -19 -1 -8 3 -5 6 6 6 11 1 17
-2 13 -5z m4473 -4 c12 -8 11 -10 -7 -10 -12 0 -25 5 -28 10 -8 13 15 13 35 0z
m-285 -10 c4 -6 -7 -10 -24 -10 -17 0 -31 5 -31 10 0 6 11 10 24 10 14 0 28
-4 31 -10z m102 4 c-3 -3 -12 -4 -19 -1 -8 3 -5 6 6 6 11 1 17 -2 13 -5z
m-197 -14 c16 -10 11 -11 -75 -14 -62 -2 -76 8 -20 15 78 9 79 9 95 -1z
m-3673 -22 c-3 -8 -6 -5 -6 6 -1 11 2 17 5 13 3 -3 4 -12 1 -19z m4140 16 c-3
-3 -12 -4 -19 -1 -8 3 -5 6 6 6 11 1 17 -2 13 -5z m-737 -12 c0 -4 -9 -8 -20
-9 -11 -1 -20 2 -20 8 0 5 9 9 20 9 11 0 20 -4 20 -8z m60 4 c0 -3 -4 -8 -10
-11 -5 -3 -10 -1 -10 4 0 6 5 11 10 11 6 0 10 -2 10 -4z m725 -6 c3 -6 -1 -7
-9 -4 -18 7 -21 14 -7 14 6 0 13 -4 16 -10z m-4945 -10 c0 -5 -4 -10 -10 -10
-5 0 -10 5 -10 10 0 6 5 10 10 10 6 0 10 -4 10 -10z m85 1 c3 -5 1 -12 -5 -16
-5 -3 -10 1 -10 9 0 18 6 21 15 7z m3839 2 c10 -10 -34 -31 -56 -25 -25 6 -23
20 5 25 37 7 43 7 51 0z m66 -3 c0 -5 -7 -10 -15 -10 -8 0 -15 5 -15 10 0 6 7
10 15 10 8 0 15 -4 15 -10z m-3260 -10 c0 -5 -4 -10 -10 -10 -5 0 -10 5 -10
10 0 6 5 10 10 10 6 0 10 -4 10 -10z m3090 0 c0 -5 -4 -10 -10 -10 -5 0 -10 5
-10 10 0 6 5 10 10 10 6 0 10 -4 10 -10z m-33 -6 c-3 -3 -12 -4 -19 -1 -8 3
-5 6 6 6 11 1 17 -2 13 -5z m-267 -14 c0 -5 -4 -10 -10 -10 -5 0 -10 5 -10 10
0 6 5 10 10 10 6 0 10 -4 10 -10z m85 0 c4 -6 -7 -10 -25 -10 -18 0 -29 4 -25
10 3 6 15 10 25 10 10 0 22 -4 25 -10z m88 3 c-7 -2 -19 -2 -25 0 -7 3 -2 5
12 5 14 0 19 -2 13 -5z m-2766 -25 c-3 -8 -6 -5 -6 6 -1 11 2 17 5 13 3 -3 4
-12 1 -19z m2528 12 c-3 -5 -27 -10 -53 -9 -31 0 -41 3 -28 8 30 12 88 13 81
1z m-150 -10 c-3 -5 -39 -9 -78 -8 -71 1 -71 1 -22 8 80 11 107 11 100 0z
m-3115 -10 c0 -5 -4 -10 -10 -10 -5 0 -10 5 -10 10 0 6 5 10 10 10 6 0 10 -4
10 -10z m410 0 c0 -5 -5 -10 -11 -10 -5 0 -7 5 -4 10 3 6 8 10 11 10 2 0 4 -4
4 -10z m2530 0 c0 -5 -12 -10 -27 -10 -22 0 -25 2 -13 10 20 13 40 13 40 0z
m-2820 -4 c0 -3 -4 -8 -10 -11 -5 -3 -10 -1 -10 4 0 6 5 11 10 11 6 0 10 -2
10 -4z m2694 -10 c-3 -8 -12 -12 -20 -9 -17 6 -9 23 11 23 8 0 12 -6 9 -14z
m48 2 c-9 -9 -15 -9 -24 0 -9 9 -7 12 12 12 19 0 21 -3 12 -12z m-222 -8 c0
-5 -4 -10 -10 -10 -5 0 -10 5 -10 10 0 6 5 10 10 10 6 0 10 -4 10 -10z m60 0
c0 -5 -7 -10 -15 -10 -8 0 -15 5 -15 10 0 6 7 10 15 10 8 0 15 -4 15 -10z
m-1930 -4 c0 -11 -19 -15 -25 -6 -3 5 1 10 9 10 9 0 16 -2 16 -4z m140 -11 c0
-8 -9 -15 -21 -15 -11 0 -17 5 -14 10 4 6 11 8 16 5 5 -4 9 -1 9 4 0 6 2 11 5
11 3 0 5 -7 5 -15z m1585 5 c3 -5 -1 -10 -10 -10 -9 0 -13 5 -10 10 3 6 8 10
10 10 2 0 7 -4 10 -10z m78 3 c-7 -2 -21 -2 -30 0 -10 3 -4 5 12 5 17 0 24 -2
18 -5z m-143 -14 c0 -10 -30 -20 -41 -13 -18 11 -9 24 16 22 14 -1 25 -5 25
-9z m30 1 c0 -5 -4 -10 -10 -10 -5 0 -10 5 -10 10 0 6 5 10 10 10 6 0 10 -4
10 -10z m-1793 -6 c-3 -3 -12 -4 -19 -1 -8 3 -5 6 6 6 11 1 17 -2 13 -5z
m1493 -5 c0 -7 -11 -9 -30 -5 -18 3 -30 1 -30 -5 0 -6 -5 -7 -11 -3 -8 4 -7 9
2 15 20 13 69 11 69 -2z m60 -5 c0 -2 -12 -4 -26 -4 -14 0 -23 4 -20 9 6 8 46
4 46 -5z m75 6 c4 -6 -7 -10 -24 -10 -17 0 -31 5 -31 10 0 6 11 10 24 10 14 0
28 -4 31 -10z m65 2 c0 -10 -36 -9 -46 1 -4 4 5 7 19 7 15 0 27 -4 27 -8z
m-403 -28 c-3 -3 -12 -4 -19 -1 -8 3 -5 6 6 6 11 1 17 -2 13 -5z m-1050 -26
c-3 -8 -6 -5 -6 6 -1 11 2 17 5 13 3 -3 4 -12 1 -19z m758 12 c4 -6 -6 -10
-22 -9 -25 0 -26 1 -8 9 11 5 21 9 22 9 1 1 5 -3 8 -9z m162 3 c-10 -9 -58
-10 -63 -1 -3 4 12 8 32 8 21 0 34 -3 31 -7z m-242 -13 c-3 -5 -13 -10 -21
-10 -8 0 -12 5 -9 10 3 6 13 10 21 10 8 0 12 -4 9 -10z m-2128 -6 c-3 -3 -12
-4 -19 -1 -8 3 -5 6 6 6 11 1 17 -2 13 -5z m798 -5 c11 -17 -1 -21 -15 -4 -8
9 -8 15 -2 15 6 0 14 -5 17 -11z m1477 -8 c16 -18 14 -19 -28 -23 -24 -2 -44
0 -44 4 0 5 5 8 10 8 6 0 10 7 10 15 0 21 32 19 52 -4z m-1302 -81 c0 -5 -4
-10 -10 -10 -5 0 -10 5 -10 10 0 6 5 10 10 10 6 0 10 -4 10 -10z m-980 -10 c0
-5 -5 -10 -11 -10 -5 0 -7 5 -4 10 3 6 8 10 11 10 2 0 4 -4 4 -10z m1450 -10
c0 -5 -5 -10 -11 -10 -5 0 -7 5 -4 10 3 6 8 10 11 10 2 0 4 -4 4 -10z m-3287
-15 c-3 -9 -8 -14 -10 -11 -3 3 -2 9 2 15 9 16 15 13 8 -4z m137 1 c0 -11 -19
-15 -25 -6 -3 5 1 10 9 10 9 0 16 -2 16 -4z m3030 -26 c0 -5 -5 -10 -11 -10
-5 0 -7 5 -4 10 3 6 8 10 11 10 2 0 4 -4 4 -10z m157 -22 c-3 -7 -5 -2 -5 12
0 14 2 19 5 13 2 -7 2 -19 0 -25z m-3037 6 c0 -2 -19 -3 -42 -3 -39 1 -41 2
-13 8 28 7 55 4 55 -5z m1305 -42 c-8 -8 -57 -12 -68 -5 -16 10 12 20 44 15
16 -2 27 -7 24 -10z m-1585 4 c0 -3 -4 -8 -10 -11 -5 -3 -10 -1 -10 4 0 6 5
11 10 11 6 0 10 -2 10 -4z m2197 -22 c-3 -3 -12 -4 -19 -1 -8 3 -5 6 6 6 11 1
17 -2 13 -5z m193 -4 c0 -5 -4 -10 -10 -10 -5 0 -10 5 -10 10 0 6 5 10 10 10
6 0 10 -4 10 -10z m-930 -17 c0 -10 -5 -25 -10 -33 -7 -11 -10 -7 -10 18 0 17
5 32 10 32 6 0 10 -8 10 -17z m1420 7 c0 -5 -4 -10 -10 -10 -5 0 -10 5 -10 10
0 6 5 10 10 10 6 0 10 -4 10 -10z m290 -10 c0 -5 -2 -10 -4 -10 -3 0 -8 5 -11
10 -3 6 -1 10 4 10 6 0 11 -4 11 -10z m-1560 -36 c0 -14 -4 -23 -9 -20 -7 5
-8 23 -2 44 4 12 11 -3 11 -24z m-1410 -14 c0 -5 -2 -10 -4 -10 -3 0 -8 5 -11
10 -3 6 -1 10 4 10 6 0 11 -4 11 -10z m1350 -30 c0 -5 -4 -10 -10 -10 -5 0
-10 5 -10 10 0 6 5 10 10 10 6 0 10 -4 10 -10z m1280 -20 c0 -5 -2 -10 -4 -10
-3 0 -8 5 -11 10 -3 6 -1 10 4 10 6 0 11 -4 11 -10z m515 0 c3 -5 -1 -10 -9
-10 -9 0 -16 5 -16 10 0 6 4 10 9 10 6 0 13 -4 16 -10z m-1887 -27 c-5 -25
-28 -28 -28 -4 0 12 6 21 16 21 9 0 14 -7 12 -17z m148 -10 c-10 -10 -19 5
-10 18 6 11 8 11 12 0 2 -7 1 -15 -2 -18z m-1516 1 c0 -2 -12 -4 -26 -4 -14 0
-23 4 -20 9 6 8 46 4 46 -5z m1460 -34 c0 -5 -4 -10 -10 -10 -5 0 -10 5 -10
10 0 6 5 10 10 10 6 0 10 -4 10 -10z m-1450 -20 c0 -5 -7 -10 -16 -10 -8 0
-12 5 -9 10 3 6 10 10 16 10 5 0 9 -4 9 -10z m220 1 c0 -6 -4 -13 -10 -16 -5
-3 -10 1 -10 9 0 9 5 16 10 16 6 0 10 -4 10 -9z m2520 -17 c0 -8 -4 -12 -10
-9 -5 3 -10 10 -10 16 0 5 5 9 10 9 6 0 10 -7 10 -16z m-4162 -21 c-10 -2 -26
-2 -35 0 -10 3 -2 5 17 5 19 0 27 -2 18 -5z m95 0 c-13 -2 -35 -2 -50 0 -16 2
-5 4 22 4 28 0 40 -2 28 -4z m-610 -10 c-18 -2 -48 -2 -65 0 -18 2 -4 4 32 4
36 0 50 -2 33 -4z m2015 -10 c-5 -25 -28 -28 -28 -4 0 12 6 21 16 21 9 0 14
-7 12 -17z m-218 3 c0 -3 -4 -8 -10 -11 -5 -3 -10 -1 -10 4 0 6 5 11 10 11 6
0 10 -2 10 -4z m2877 -18 c-3 -8 -6 -5 -6 6 -1 11 2 17 5 13 3 -3 4 -12 1 -19z
m529 -45 c-10 -10 -19 5 -10 18 6 11 8 11 12 0 2 -7 1 -15 -2 -18z m-1756 -4
c0 -5 -4 -9 -10 -9 -5 0 -10 7 -10 16 0 8 5 12 10 9 6 -3 10 -10 10 -16z
m-164 -6 c-18 -60 -18 -73 -2 -73 9 0 16 7 16 15 0 8 6 15 14 15 11 0 11 -6
-2 -34 -17 -37 -37 -38 -46 -3 -7 29 4 97 16 97 5 0 7 -8 4 -17z m-1501 -23
c10 -16 -5 -50 -21 -50 -8 0 -14 10 -14 23 0 34 21 50 35 27z m3164 -34 c-2
-2 -58 -6 -124 -8 -66 -3 -104 -2 -85 2 35 7 217 13 209 6z m74 -3 c-7 -2 -21
-2 -30 0 -10 3 -4 5 12 5 17 0 24 -2 18 -5z m-644 -27 c-2 -2 -94 -5 -204 -8
-168 -4 -189 -3 -132 6 58 9 346 11 336 2z m681 -6 c0 -5 -2 -10 -4 -10 -3 0
-8 5 -11 10 -3 6 -1 10 4 10 6 0 11 -4 11 -10z m4350 -15 c21 -25 1 -31 -22
-7 -18 18 -19 22 -6 22 8 0 21 -7 28 -15z m-3570 -5 c0 -5 -4 -10 -9 -10 -6 0
-13 5 -16 10 -3 6 1 10 9 10 9 0 16 -4 16 -10z m-3852 -27 c-5 -25 -28 -28
-28 -4 0 12 6 21 16 21 9 0 14 -7 12 -17z m1392 7 c0 -5 -4 -10 -10 -10 -5 0
-10 5 -10 10 0 6 5 10 10 10 6 0 10 -4 10 -10z m-325 -10 c3 -5 1 -10 -4 -10
-6 0 -11 5 -11 10 0 6 2 10 4 10 3 0 8 -4 11 -10z m1195 0 c0 -5 -4 -10 -10
-10 -5 0 -10 5 -10 10 0 6 5 10 10 10 6 0 10 -4 10 -10z m-972 -51 c-18 -12
-23 17 -6 38 12 15 13 14 16 -7 2 -12 -2 -27 -10 -31z m-2198 31 c-63 -4 -180
-7 -260 -7 l-145 1 115 6 c63 3 180 6 260 6 l145 1 -115 -7z m2356 -17 c-10
-10 -19 5 -10 18 6 11 8 11 12 0 2 -7 1 -15 -2 -18z m-1318 -5 c-5 -32 -28
-35 -28 -4 0 17 5 26 16 26 10 0 14 -7 12 -22z m-1580 5 c-21 -2 -57 -2 -80 0
-24 2 -7 4 37 4 44 0 63 -2 43 -4z m3527 -33 c3 -5 1 -10 -4 -10 -6 0 -11 5
-11 10 0 6 2 10 4 10 3 0 8 -4 11 -10z m-2095 -40 c0 -11 -4 -20 -9 -20 -14 0
-23 18 -16 30 10 17 25 11 25 -10z m2330 -30 c0 -5 -5 -10 -11 -10 -5 0 -7 5
-4 10 3 6 8 10 11 10 2 0 4 -4 4 -10z m-145 -10 c3 -5 1 -10 -4 -10 -6 0 -11
5 -11 10 0 6 2 10 4 10 3 0 8 -4 11 -10z m55 1 c0 -6 -4 -13 -10 -16 -5 -3
-10 1 -10 9 0 9 5 16 10 16 6 0 10 -4 10 -9z m50 -1 c0 -5 -7 -10 -15 -10 -8
0 -15 5 -15 10 0 6 7 10 15 10 8 0 15 -4 15 -10z m1495 0 c-3 -5 -32 -9 -63
-8 l-57 1 60 7 c33 4 61 7 63 8 2 1 0 -2 -3 -8z m-1690 -10 c3 -5 1 -10 -4
-10 -6 0 -11 5 -11 10 0 6 2 10 4 10 3 0 8 -4 11 -10z m1405 -20 c-20 -13 -83
-13 -75 0 3 6 25 10 48 10 31 0 38 -3 27 -10z m-277 -11 c19 -2 -37 -12 -119
-21 -11 -2 -28 -9 -37 -16 -9 -8 -18 -9 -21 -4 -3 6 1 15 9 22 16 13 111 30
133 24 8 -2 23 -5 35 -5z m-3233 -8 c0 -19 -12 -41 -20 -36 -10 6 -1 45 11 45
5 0 9 -4 9 -9z m1467 -13 c-3 -8 -6 -5 -6 6 -1 11 2 17 5 13 3 -3 4 -12 1 -19z
m3630 16 c-3 -3 -12 -4 -19 -1 -8 3 -5 6 6 6 11 1 17 -2 13 -5z m-2847 -14 c0
-5 -4 -10 -10 -10 -5 0 -10 5 -10 10 0 6 5 10 10 10 6 0 10 -4 10 -10z m50
-30 c0 -5 -4 -10 -10 -10 -5 0 -10 5 -10 10 0 6 5 10 10 10 6 0 10 -4 10 -10z
m1183 3 c-7 -2 -19 -2 -25 0 -7 3 -2 5 12 5 14 0 19 -2 13 -5z m-3583 -38 c0
-8 -4 -15 -10 -15 -5 0 -10 7 -10 15 0 8 5 15 10 15 6 0 10 -7 10 -15z m-805
-5 c-33 -4 -91 -8 -130 -7 l-70 0 65 7 c36 4 94 7 130 7 l65 0 -60 -7z m4100
0 c3 -5 -3 -10 -15 -10 -12 0 -18 5 -15 10 3 6 10 10 15 10 5 0 12 -4 15 -10z
m-1715 -31 c0 -5 -7 -9 -15 -9 -15 0 -20 12 -9 23 8 8 24 -1 24 -14z m-2792 4
c-16 -2 -40 -2 -55 0 -16 2 -3 4 27 4 30 0 43 -2 28 -4z m3958 -42 c-12 -19
-24 -12 -19 10 4 13 9 17 15 11 6 -6 7 -15 4 -21z m-61 9 c-3 -5 -13 -10 -21
-10 -8 0 -12 5 -9 10 3 6 13 10 21 10 8 0 12 -4 9 -10z m-2465 -14 c0 -3 -4
-8 -10 -11 -5 -3 -10 -1 -10 4 0 6 5 11 10 11 6 0 10 -2 10 -4z m-2373 -12
c-3 -3 -12 -4 -19 -1 -8 3 -5 6 6 6 11 1 17 -2 13 -5z m4553 -17 c19 -3 16 -5
-12 -6 -30 -1 -36 2 -31 15 3 9 8 11 12 6 3 -6 17 -12 31 -15z m-263 -29 c-3
-8 -6 -5 -6 6 -1 11 2 17 5 13 3 -3 4 -12 1 -19z m-137 -3 c0 -8 -4 -15 -10
-15 -5 0 -10 7 -10 15 0 8 5 15 10 15 6 0 10 -7 10 -15z m100 5 c0 -5 -10 -10
-22 -10 -19 0 -20 2 -8 10 19 13 30 13 30 0z m-133 -22 c-3 -8 -6 -5 -6 6 -1
11 2 17 5 13 3 -3 4 -12 1 -19z m630 6 c-3 -3 -12 -4 -19 -1 -8 3 -5 6 6 6 11
1 17 -2 13 -5z m1423 -18 c0 -6 -10 -20 -22 -30 -19 -17 -21 -17 -14 -1 4 11
0 23 -11 32 -16 13 -16 13 6 2 21 -10 23 -9 18 4 -4 11 -2 14 9 10 7 -3 14
-10 14 -17z m-350 4 c0 -5 -7 -7 -15 -4 -8 4 -15 8 -15 10 0 2 7 4 15 4 8 0
15 -4 15 -10z m-2160 -14 c0 -8 -4 -18 -10 -21 -5 -3 -10 3 -10 14 0 12 5 21
10 21 6 0 10 -6 10 -14z m2440 -2 c0 -8 -4 -12 -10 -9 -5 3 -10 10 -10 16 0 5
5 9 10 9 6 0 10 -7 10 -16z m110 -4 c0 -5 -4 -10 -9 -10 -6 0 -13 5 -16 10 -3
6 1 10 9 10 9 0 16 -4 16 -10z m-3870 -20 c0 -5 -5 -10 -11 -10 -5 0 -7 5 -4
10 3 6 8 10 11 10 2 0 4 -4 4 -10z m2950 -10 c-14 -4 -41 -8 -60 -8 l-35 1 40
7 c57 10 87 10 55 0z m565 0 c3 -5 -1 -10 -9 -10 -9 0 -16 5 -16 10 0 6 4 10
9 10 6 0 13 -4 16 -10z m195 1 c-25 -4 -35 -11 -34 -24 1 -10 -5 -17 -17 -17
-10 0 -19 4 -19 10 0 5 -8 7 -17 4 -12 -4 -9 1 7 15 18 15 38 20 70 19 44 -1
44 -1 10 -7z m-3930 -15 c0 -17 -14 -29 -23 -20 -8 8 3 34 14 34 5 0 9 -6 9
-14z m1600 -1 c0 -8 -4 -15 -10 -15 -5 0 -10 7 -10 15 0 8 5 15 10 15 6 0 10
-7 10 -15z m1465 -5 c-3 -5 -16 -10 -28 -10 -18 0 -19 2 -7 10 20 13 43 13 35
0z m-506 -64 c-9 -8 -99 -13 -99 -5 0 5 23 9 52 9 28 0 49 -2 47 -4z m-2353
-43 c-11 -11 -19 6 -11 24 8 17 8 17 12 0 3 -10 2 -21 -1 -24z m2224 27 c-14
-4 -36 -8 -50 -8 -22 0 -22 1 5 8 17 4 39 8 50 8 16 0 15 -2 -5 -8z m-169 -25
c-35 -8 -69 -11 -75 -7 -13 8 42 19 99 20 34 0 31 -2 -24 -13z m-171 -25 c-8
-5 -17 -7 -19 -4 -3 3 1 9 9 14 8 5 17 7 19 4 3 -3 -1 -9 -9 -14z m-347 -17
c-13 -2 -33 -2 -45 0 -13 2 -3 4 22 4 25 0 35 -2 23 -4z m257 -68 c-7 -9 -15
-13 -19 -10 -3 3 1 10 9 15 21 14 24 12 10 -5z m-244 -45 c-50 -15 -142 -23
-131 -12 9 10 59 17 130 19 l30 1 -29 -8z m-176 -24 c0 -2 -13 -6 -29 -8 -17
-2 -28 -1 -25 4 5 8 54 12 54 4z m658 -7 c-2 -6 -8 -11 -13 -11 -6 0 -15 -4
-21 -9 -11 -9 -24 -2 -24 14 0 5 7 7 15 4 8 -4 17 -2 20 3 8 14 28 13 23 -1z
m-741 -5 c-3 -3 -12 -4 -19 -1 -8 3 -5 6 6 6 11 1 17 -2 13 -5z m-47 -14 c-8
-5 -31 -9 -50 -8 l-35 1 40 7 c59 11 61 11 45 0z m690 0 c0 -5 -4 -10 -10 -10
-5 0 -10 5 -10 10 0 6 5 10 10 10 6 0 10 -4 10 -10z m-1793 -16 c-3 -3 -12 -4
-19 -1 -8 3 -5 6 6 6 11 1 17 -2 13 -5z m938 -5 c-27 -5 -63 -12 -80 -15 -82
-15 -125 -16 -125 -4 0 7 6 10 13 7 7 -3 35 1 63 8 27 7 78 12 114 13 l65 0
-50 -9z m1146 -4 c0 -5 -18 -11 -40 -13 -23 -1 -41 2 -41 7 0 20 80 26 81 6z
m-541 -20 c7 -9 11 -17 9 -19 -2 -2 -49 -11 -104 -20 -55 -9 -129 -20 -165
-26 -74 -12 -168 -27 -220 -34 -25 -4 -31 -3 -20 4 12 8 9 10 -12 10 -15 0
-31 -6 -35 -14 -5 -9 -80 -26 -228 -50 -121 -20 -241 -41 -267 -46 -27 -5 -96
-17 -155 -25 -60 -9 -128 -20 -153 -25 -25 -6 -85 -17 -135 -25 -49 -8 -110
-19 -135 -25 -58 -12 -93 -12 -85 -1 3 5 30 13 61 17 37 4 51 9 43 15 -9 6 0
8 26 7 68 -2 248 24 233 34 -9 7 -7 8 7 4 31 -9 367 45 388 62 7 5 74 15 150
22 95 9 137 17 134 25 -7 17 188 52 206 37 11 -9 24 -9 56 3 27 9 39 10 35 3
-5 -8 -2 -9 10 -5 10 4 23 7 29 7 7 0 6 4 -2 9 -17 11 -17 11 144 37 61 9 117
21 125 25 23 13 46 10 60 -6z m-833 -11 c-3 -3 -12 -4 -19 -1 -8 3 -5 6 6 6
11 1 17 -2 13 -5z m-1090 -10 c-3 -3 -12 -4 -19 -1 -8 3 -5 6 6 6 11 1 17 -2
13 -5z m988 -8 c-27 -7 -84 -15 -125 -18 -83 -6 -47 4 70 20 92 13 114 12 55
-2z m-228 -32 c-3 -3 -12 -4 -19 -1 -8 3 -5 6 6 6 11 1 17 -2 13 -5z m-1180
-20 c-3 -3 -12 -4 -19 -1 -8 3 -5 6 6 6 11 1 17 -2 13 -5z m1086 -1 c-7 -2
-19 -2 -25 0 -7 3 -2 5 12 5 14 0 19 -2 13 -5z m-270 -40 c-7 -2 -21 -2 -30 0
-10 3 -4 5 12 5 17 0 24 -2 18 -5z m1562 -3 c-3 -5 -14 -10 -23 -9 -14 0 -13
2 3 9 27 11 27 11 20 0z m-1642 -7 c-7 -2 -21 -2 -30 0 -10 3 -4 5 12 5 17 0
24 -2 18 -5z m1607 -13 c13 -9 13 -10 0 -9 -8 0 -24 4 -35 9 l-20 9 20 0 c11
0 27 -4 35 -9z m85 0 c-11 -5 -29 -9 -40 -9 -17 -1 -17 1 -5 9 8 5 26 9 40 9
23 0 23 -1 5 -9z m-116 -27 c2 -2 -13 -3 -34 -3 -36 0 -37 1 -19 14 14 11 23
12 34 3 8 -6 17 -13 19 -14z m-126 1 c-3 -8 -12 -13 -20 -10 -8 3 -24 7 -36 7
-17 1 -15 3 8 9 48 12 55 11 48 -6z m-54 -34 c-13 -4 -47 -10 -74 -13 -49 -6
-48 -6 15 12 36 10 69 16 75 13 5 -3 -2 -9 -16 -12z m-1952 -6 c-3 -3 -12 -4
-19 -1 -8 3 -5 6 6 6 11 1 17 -2 13 -5z m1764 -9 c34 -14 34 -14 7 -15 -16 0
-28 4 -28 9 0 5 -12 12 -27 14 -21 3 -22 4 -7 6 12 0 37 -6 55 -14z m-1401
-104 c-23 -13 -137 -24 -125 -12 6 5 35 12 65 14 30 2 60 4 65 5 6 1 3 -2 -5
-7z m-1205 -12 c-22 -4 -51 -8 -65 -7 -35 1 34 15 75 16 25 0 23 -2 -10 -9z
m-218 -35 c-3 -3 -12 -4 -19 -1 -8 3 -5 6 6 6 11 1 17 -2 13 -5z m-270 -40
c-3 -3 -12 -4 -19 -1 -8 3 -5 6 6 6 11 1 17 -2 13 -5z m1762 -54 l23 -19 -23
-5 c-13 -3 -109 -21 -214 -41 -104 -20 -239 -45 -300 -57 -60 -11 -114 -21
-119 -22 -5 0 -11 5 -13 12 -3 8 1 10 13 5 11 -4 15 -3 10 5 -4 7 6 11 31 11
69 0 156 14 318 51 22 5 57 12 78 15 39 6 52 25 17 25 -11 0 -20 -4 -20 -10 0
-5 -19 -10 -43 -10 -24 0 -47 -4 -52 -8 -6 -4 -28 -5 -50 -2 -34 4 -20 8 90
28 72 13 148 27 170 31 60 13 60 12 84 -9z m-1364 -39 c-12 -11 -133 -26 -122
-15 4 5 29 11 55 15 72 10 77 10 67 0z m85 -10 c0 -5 -18 -13 -40 -19 -48 -12
-52 -6 -7 13 38 17 47 18 47 6z m-282 -25 c-26 -19 -22 -27 8 -16 14 6 45 10
69 10 24 0 45 3 47 8 2 4 19 5 38 2 31 -5 26 -7 -40 -18 -41 -7 -124 -22 -185
-32 -164 -28 -285 -48 -335 -54 l-45 -5 35 13 c19 7 64 16 99 20 89 10 254 45
266 57 5 6 4 9 -5 9 -13 0 -13 2 0 10 8 5 26 10 40 10 23 -1 24 -2 8 -14z
m1115 7 c-7 -2 -21 -2 -30 0 -10 3 -4 5 12 5 17 0 24 -2 18 -5z m-2185 -10
c-10 -2 -26 -2 -35 0 -10 3 -2 5 17 5 19 0 27 -2 18 -5z m1929 -29 c-3 -3 -12
-4 -19 -1 -8 3 -5 6 6 6 11 1 17 -2 13 -5z m-77 -13 c0 -5 -7 -11 -14 -14 -10
-4 -13 -1 -9 9 6 15 23 19 23 5z m-60 -21 c0 -5 -4 -10 -10 -10 -5 0 -10 5
-10 10 0 6 5 10 10 10 6 0 10 -4 10 -10z m178 -5 c-11 -10 -179 -35 -190 -28
-8 5 6 11 42 16 30 4 65 9 77 10 13 2 25 6 29 9 3 3 14 3 25 1 11 -3 18 -7 17
-8z m-223 -5 c8 -13 -25 -13 -45 0 -12 8 -9 10 12 10 15 0 30 -4 33 -10z m-68
-8 c7 -4 -6 -8 -30 -9 -34 0 -37 1 -17 7 34 11 33 11 47 2z m-77 -22 c0 -5 -7
-7 -15 -4 -8 4 -15 8 -15 10 0 2 7 4 15 4 8 0 15 -4 15 -10z m-1060 -16 c-72
-14 -127 -18 -116 -7 9 9 88 20 141 20 34 1 30 -1 -25 -13z m1195 5 c-88 -21
-306 -59 -332 -58 -22 1 -19 3 12 9 22 4 76 15 120 25 101 23 161 32 205 33
l35 0 -40 -9z m-370 -58 c3 -5 -4 -13 -16 -16 -23 -8 -34 -1 -24 14 8 13 32
14 40 2z m-1378 -37 c-3 -3 -12 -4 -19 -1 -8 3 -5 6 6 6 11 1 17 -2 13 -5z
m-112 -13 c-6 -6 -30 -12 -55 -15 -38 -5 -40 -4 -12 3 18 5 36 11 39 15 4 3
13 6 22 6 9 0 11 -3 6 -9z m-112 -28 c-7 -2 -19 -2 -25 0 -7 3 -2 5 12 5 14 0
19 -2 13 -5z"/>
<path d="M1493 5163 c9 -9 19 -14 23 -11 10 10 -6 28 -24 28 -15 0 -15 -1 1
-17z"/>
<path d="M1485 5140 c-3 -5 1 -10 10 -10 9 0 13 5 10 10 -3 6 -8 10 -10 10 -2
0 -7 -4 -10 -10z"/>
<path d="M2230 5040 c0 -5 5 -10 10 -10 6 0 10 5 10 10 0 6 -4 10 -10 10 -5 0
-10 -4 -10 -10z"/>
<path d="M2041 5026 c-10 -14 -31 -74 -31 -91 0 -7 18 -20 41 -29 41 -16 41
-16 66 9 34 33 81 33 117 0 14 -13 26 -31 26 -40 0 -9 9 -15 26 -15 14 0 34
-4 44 -10 23 -12 34 1 47 58 9 34 8 42 -3 42 -8 0 -13 -6 -11 -12 2 -13 -2
-13 -82 -4 -51 6 -59 12 -43 28 8 8 15 8 24 1 17 -15 72 -20 78 -8 3 5 -20 14
-50 21 -30 6 -68 17 -84 23 -20 8 -32 9 -40 1 -7 -7 -6 -10 5 -10 18 -1 54
-28 47 -36 -4 -3 -17 0 -30 7 -12 7 -36 12 -52 11 -15 -2 -35 3 -42 9 -8 6
-21 8 -30 5 -10 -4 -14 -2 -11 6 2 7 10 12 16 11 6 -2 11 2 11 9 0 6 8 4 20
-7 18 -16 62 -14 46 2 -15 16 -96 30 -105 19z"/>
<path d="M2355 5010 c4 -6 11 -8 16 -5 14 9 11 15 -7 15 -8 0 -12 -5 -9 -10z"/>
<path d="M2012 4864 c13 -15 26 -19 55 -15 l38 4 -30 8 c-16 4 -41 11 -55 15
-24 7 -24 6 -8 -12z"/>
<path d="M2133 4843 c9 -2 23 -2 30 0 6 3 -1 5 -18 5 -16 0 -22 -2 -12 -5z"/>
<path d="M2220 4830 c0 -5 12 -10 28 -10 21 0 24 2 12 10 -20 13 -40 13 -40 0z"/>
<path d="M2298 4813 c7 -3 16 -2 19 1 4 3 -2 6 -13 5 -11 0 -14 -3 -6 -6z"/>
<path d="M3760 4590 c0 -5 5 -10 10 -10 6 0 10 5 10 10 0 6 -4 10 -10 10 -5 0
-10 -4 -10 -10z"/>
<path d="M3810 4570 c0 -6 7 -10 15 -10 8 0 15 2 15 4 0 2 -7 6 -15 10 -8 3
-15 1 -15 -4z"/>
<path d="M4608 4383 c7 -3 16 -2 19 1 4 3 -2 6 -13 5 -11 0 -14 -3 -6 -6z"/>
<path d="M5300 4225 c0 -9 9 -15 21 -15 18 0 19 2 5 15 -8 8 -17 15 -20 15 -3
0 -6 -7 -6 -15z"/>
<path d="M9368 4043 c7 -3 16 -2 19 1 4 3 -2 6 -13 5 -11 0 -14 -3 -6 -6z"/>
<path d="M5981 3404 c0 -11 3 -14 6 -6 3 7 2 16 -1 19 -3 4 -6 -2 -5 -13z"/>
<path d="M4890 1300 c-13 -8 -13 -10 2 -10 9 0 20 5 23 10 8 13 -5 13 -25 0z"/>
<path d="M4628 1253 c6 -2 18 -2 25 0 6 3 1 5 -13 5 -14 0 -19 -2 -12 -5z"/>
<path d="M4310 1200 c-12 -8 -11 -10 7 -10 12 0 25 5 28 10 8 13 -15 13 -35 0z"/>
<path d="M3068 823 c6 -2 18 -2 25 0 6 3 1 5 -13 5 -14 0 -19 -2 -12 -5z"/>
<path d="M2163 6740 c0 -25 2 -35 4 -22 2 12 2 32 0 45 -2 12 -4 2 -4 -23z"/>
<path d="M5425 6770 c3 -5 8 -10 11 -10 2 0 4 5 4 10 0 6 -5 10 -11 10 -5 0
-7 -4 -4 -10z"/>
<path d="M6640 6720 l0 -60 40 0 40 0 0 60 0 60 -40 0 -40 0 0 -60z"/>
<path d="M2320 6685 c0 -11 11 -15 40 -15 29 0 40 4 40 15 0 11 -11 15 -40 15
-29 0 -40 -4 -40 -15z"/>
<path d="M2841 6644 c0 -11 3 -14 6 -6 3 7 2 16 -1 19 -3 4 -6 -2 -5 -13z"/>
<path d="M2465 6610 c3 -5 8 -10 11 -10 2 0 4 5 4 10 0 6 -5 10 -11 10 -5 0
-7 -4 -4 -10z"/>
<path d="M2480 6560 c0 -11 5 -20 11 -20 6 0 17 -7 25 -15 21 -21 44 -8 44 26
0 27 -3 29 -40 29 -33 0 -40 -3 -40 -20z"/>
<path d="M3010 6560 c0 -15 7 -20 25 -20 21 0 25 -5 25 -30 0 -25 4 -30 24
-30 13 0 33 -3 43 -6 15 -6 16 -4 6 7 -7 7 -13 21 -13 32 0 22 -23 47 -43 47
-7 0 -17 3 -21 7 -3 4 -15 8 -26 10 -14 2 -20 -3 -20 -17z"/>
<path d="M3280 6369 c0 -5 5 -7 10 -4 6 3 10 8 10 11 0 2 -4 4 -10 4 -5 0 -10
-5 -10 -11z"/>
<path d="M3920 6275 c0 -18 5 -25 18 -25 19 0 45 -24 55 -50 3 -8 6 4 6 28 1
35 -2 42 -18 42 -10 0 -24 7 -31 15 -18 22 -30 18 -30 -10z"/>
<path d="M6120 6260 c0 -22 5 -40 10 -40 6 0 10 18 10 40 0 22 -4 40 -10 40
-5 0 -10 -18 -10 -40z"/>
<path d="M3940 6211 c0 -6 5 -13 10 -16 6 -3 10 1 10 9 0 9 -4 16 -10 16 -5 0
-10 -4 -10 -9z"/>
<path d="M5547 6189 c7 -7 15 -10 18 -7 3 3 -2 9 -12 12 -14 6 -15 5 -6 -5z"/>
<path d="M3950 6152 c0 -28 -26 -63 -39 -52 -3 3 -8 -6 -9 -19 -4 -25 3 -25
51 -6 14 6 17 2 17 -24 0 -21 5 -31 15 -31 18 0 20 -36 3 -43 -8 -2 -9 -8 -4
-13 5 -5 11 -4 13 4 3 6 11 12 19 12 10 0 14 12 14 40 0 22 -5 40 -11 40 -6 0
-18 7 -26 16 -13 13 -14 20 -5 35 15 23 16 63 2 54 -6 -4 -17 -1 -25 5 -13 10
-15 8 -15 -18z"/>
<path d="M3830 6148 c0 -23 4 -28 24 -28 14 0 28 5 31 10 3 6 -3 10 -14 10
-11 0 -25 8 -30 18 -9 14 -10 13 -11 -10z"/>
<path d="M9540 5301 c0 -22 -5 -42 -12 -44 -7 -3 7 -5 32 -5 25 0 39 2 33 5
-8 2 -13 22 -13 44 0 32 -3 39 -20 39 -17 0 -20 -7 -20 -39z"/>
<path d="M7343 5100 c0 -41 2 -58 4 -37 2 20 2 54 0 75 -2 20 -4 3 -4 -38z"/>
<path d="M7270 5010 c0 -5 -7 -10 -15 -10 -10 0 -15 -10 -15 -29 0 -23 -5 -31
-22 -34 -13 -2 -4 -5 20 -6 l42 -1 0 45 c0 25 -2 45 -5 45 -3 0 -5 -4 -5 -10z"/>
<path d="M10751 3564 c0 -11 3 -14 6 -6 3 7 2 16 -1 19 -3 4 -6 -2 -5 -13z"/>
<path d="M5533 1513 c9 -2 23 -2 30 0 6 3 -1 5 -18 5 -16 0 -22 -2 -12 -5z"/>
<path d="M6245 1510 c3 -5 8 -10 11 -10 2 0 4 5 4 10 0 6 -5 10 -11 10 -5 0
-7 -4 -4 -10z"/>
<path d="M6128 853 c7 -3 16 -2 19 1 4 3 -2 6 -13 5 -11 0 -14 -3 -6 -6z"/>
<path d="M6165 840 c3 -5 11 -10 16 -10 6 0 7 5 4 10 -3 6 -11 10 -16 10 -6 0
-7 -4 -4 -10z"/>
<path d="M5898 803 c7 -3 16 -2 19 1 4 3 -2 6 -13 5 -11 0 -14 -3 -6 -6z"/>
<path d="M6280 806 c0 -2 11 -6 25 -8 13 -3 22 -1 19 3 -5 9 -44 13 -44 5z"/>
<path d="M5840 789 c0 -5 5 -7 10 -4 6 3 10 8 10 11 0 2 -4 4 -10 4 -5 0 -10
-5 -10 -11z"/>
<path d="M6355 782 c6 -6 24 -13 40 -17 21 -4 25 -3 15 3 -24 15 -67 26 -55
14z"/>
<path d="M5730 770 c0 -6 10 -10 23 -10 12 0 33 -3 47 -7 22 -6 23 -5 10 8
-17 16 -80 23 -80 9z"/>
<path d="M5670 750 c-12 -8 -12 -10 5 -10 11 0 27 5 35 10 12 8 12 10 -5 10
-11 0 -27 -5 -35 -10z"/>
<path d="M6448 753 c6 -2 18 -2 25 0 6 3 1 5 -13 5 -14 0 -19 -2 -12 -5z"/>
<path d="M5844 735 c11 -8 27 -15 35 -15 10 1 7 6 -9 15 -33 19 -50 18 -26 0z"/>
<path d="M5128 723 c7 -3 16 -2 19 1 4 3 -2 6 -13 5 -11 0 -14 -3 -6 -6z"/>
<path d="M6545 720 c28 -12 47 -12 40 0 -3 6 -18 10 -33 9 -24 0 -25 -1 -7 -9z"/>
<path d="M5900 716 c0 -2 7 -7 16 -10 8 -3 12 -2 9 4 -6 10 -25 14 -25 6z"/>
<path d="M6614 698 c24 -14 127 -41 133 -35 2 3 -19 10 -46 17 -28 7 -54 16
-57 21 -3 5 -15 9 -27 9 -21 -1 -21 -1 -3 -12z"/>
<path d="M4968 683 c7 -3 16 -2 19 1 4 3 -2 6 -13 5 -11 0 -14 -3 -6 -6z"/>
<path d="M5250 640 l-25 -8 27 -1 c15 -1 30 4 33 9 7 11 0 11 -35 0z"/>
<path d="M6790 640 c8 -5 26 -9 40 -9 23 0 23 1 5 9 -11 5 -29 9 -40 9 -17 1
-17 -1 -5 -9z"/>
<path d="M6140 630 c20 -13 33 -13 25 0 -3 6 -14 10 -23 10 -15 0 -15 -2 -2
-10z"/>
<path d="M5198 623 c7 -3 16 -2 19 1 4 3 -2 6 -13 5 -11 0 -14 -3 -6 -6z"/>
<path d="M5105 600 c-13 -5 -14 -9 -5 -9 8 0 24 4 35 9 13 5 14 9 5 9 -8 0
-24 -4 -35 -9z"/>
<path d="M6225 600 c3 -5 11 -10 16 -10 6 0 7 5 4 10 -3 6 -11 10 -16 10 -6 0
-7 -4 -4 -10z"/>
<path d="M6915 600 c11 -5 61 -21 110 -36 50 -15 92 -31 95 -34 3 -4 22 -10
43 -14 20 -4 37 -10 37 -14 0 -4 8 -8 18 -8 9 -1 25 -4 35 -9 9 -4 17 -3 17 2
0 5 -21 15 -47 22 -27 8 -55 18 -63 22 -16 8 -106 38 -187 63 -55 17 -92 21
-58 6z"/>
<path d="M4990 570 c-9 -6 -10 -10 -3 -10 6 0 15 5 18 10 8 12 4 12 -15 0z"/>
<path d="M4428 553 c7 -3 16 -2 19 1 4 3 -2 6 -13 5 -11 0 -14 -3 -6 -6z"/>
<path d="M4938 553 c7 -3 16 -2 19 1 4 3 -2 6 -13 5 -11 0 -14 -3 -6 -6z"/>
<path d="M6350 546 c40 -17 85 -21 60 -7 -8 5 -33 12 -55 15 l-40 6 35 -14z"/>
<path d="M6460 506 c0 -2 28 -13 63 -25 34 -12 70 -26 79 -31 21 -12 38 -13
38 -2 0 4 -35 20 -77 35 -73 25 -103 32 -103 23z"/>
<path d="M4695 490 c-3 -5 1 -10 9 -10 9 0 16 5 16 10 0 6 -4 10 -9 10 -6 0
-13 -4 -16 -10z"/>
<path d="M7280 480 c0 -3 19 -11 43 -17 23 -6 80 -25 127 -43 47 -17 109 -38
139 -46 30 -8 60 -19 67 -25 7 -6 23 -9 36 -7 14 2 -35 23 -128 56 -174 60
-284 92 -284 82z"/>
<path d="M4580 469 c-24 -5 -58 -15 -76 -24 -18 -8 -44 -15 -58 -15 -14 0 -26
-4 -26 -10 0 -5 2 -10 5 -10 14 0 131 35 135 40 3 4 30 11 60 17 30 6 44 10
30 11 -14 0 -45 -4 -70 -9z"/>
<path d="M3985 450 c-3 -5 -1 -10 4 -10 6 0 11 5 11 10 0 6 -2 10 -4 10 -3 0
-8 -4 -11 -10z"/>
<path d="M3948 433 c7 -3 16 -2 19 1 4 3 -2 6 -13 5 -11 0 -14 -3 -6 -6z"/>
<path d="M6656 432 c5 -4 36 -18 69 -31 33 -12 89 -35 125 -51 36 -16 138 -56
228 -90 90 -33 171 -65 180 -69 9 -5 51 -21 92 -36 41 -15 89 -33 105 -40 52
-23 67 -26 63 -13 -2 6 -22 17 -44 25 -21 7 -47 17 -56 23 -25 14 -104 44
-238 91 -63 22 -126 46 -140 53 -14 7 -43 19 -65 26 -22 7 -65 23 -95 35 -183
77 -252 101 -224 77z"/>
<path d="M3788 393 c7 -3 16 -2 19 1 4 3 -2 6 -13 5 -11 0 -14 -3 -6 -6z"/>
<path d="M4320 390 c0 -5 7 -7 15 -4 8 4 15 8 15 10 0 2 -7 4 -15 4 -8 0 -15
-4 -15 -10z"/>
<path d="M3738 383 c6 -2 18 -2 25 0 6 3 1 5 -13 5 -14 0 -19 -2 -12 -5z"/>
<path d="M4278 383 c6 -2 18 -2 25 0 6 3 1 5 -13 5 -14 0 -19 -2 -12 -5z"/>
<path d="M3676 371 c-4 -5 3 -7 14 -4 23 6 26 13 6 13 -8 0 -17 -4 -20 -9z"/>
<path d="M4228 373 c7 -3 16 -2 19 1 4 3 -2 6 -13 5 -11 0 -14 -3 -6 -6z"/>
<path d="M4131 351 c-25 -16 6 -21 35 -6 l29 15 -25 0 c-14 0 -31 -4 -39 -9z"/>
<path d="M3568 343 c6 -2 18 -2 25 0 6 3 1 5 -13 5 -14 0 -19 -2 -12 -5z"/>
<path d="M3960 304 c-69 -19 -146 -39 -172 -46 -53 -13 -67 -34 -15 -23 36 8
111 30 172 50 22 7 66 19 98 26 32 7 60 16 63 21 8 12 -10 9 -146 -28z"/>
<path d="M7840 294 c25 -8 61 -22 81 -31 35 -14 36 -16 21 -34 -9 -10 -26 -19
-37 -19 -22 0 -168 -69 -173 -82 -2 -4 -12 -8 -23 -8 -11 0 -37 -9 -59 -20
-22 -11 -48 -20 -59 -20 -11 0 -21 -3 -23 -8 -1 -4 -25 -22 -52 -40 l-49 -32
37 0 c21 0 60 11 86 24 42 21 51 22 76 11 46 -21 95 -35 118 -34 17 0 16 3 -9
14 -16 7 -45 19 -62 25 -30 11 -47 40 -24 40 5 0 43 16 84 35 41 19 77 35 80
35 3 0 37 18 77 41 55 32 77 40 98 35 82 -20 104 -27 182 -54 139 -49 212 -72
270 -88 30 -8 59 -19 64 -25 6 -5 17 -9 25 -9 9 0 43 -11 76 -25 60 -25 140
-36 102 -14 -9 6 -52 21 -95 34 -42 12 -102 32 -132 43 -30 11 -116 39 -190
62 -74 23 -146 46 -160 50 -14 5 -59 19 -100 31 -41 12 -79 25 -85 29 -16 12
-107 38 -150 44 l-40 5 45 -15z"/>
<path d="M3198 253 c7 -3 16 -2 19 1 4 3 -2 6 -13 5 -11 0 -14 -3 -6 -6z"/>
<path d="M3060 224 l-35 -13 45 6 c51 7 56 9 38 15 -7 3 -29 -1 -48 -8z"/>
<path d="M3673 225 c-39 -13 -58 -31 -23 -21 14 4 39 11 55 15 19 4 25 9 15
12 -8 3 -29 0 -47 -6z"/>
<path d="M3570 196 c-19 -7 -56 -16 -82 -20 -27 -4 -48 -11 -48 -16 0 -5 6 -8
13 -5 6 2 47 11 90 20 42 9 77 21 77 26 0 11 -6 11 -50 -5z"/>
<path d="M2868 173 c6 -2 18 -2 25 0 6 3 1 5 -13 5 -14 0 -19 -2 -12 -5z"/>
<path d="M2815 160 c-3 -5 1 -10 9 -10 8 0 18 5 21 10 3 6 -1 10 -9 10 -8 0
-18 -4 -21 -10z"/>
<path d="M2768 143 c7 -3 16 -2 19 1 4 3 -2 6 -13 5 -11 0 -14 -3 -6 -6z"/>
<path d="M3378 143 c6 -2 18 -2 25 0 6 3 1 5 -13 5 -14 0 -19 -2 -12 -5z"/>
<path d="M2705 130 c-13 -5 -14 -9 -5 -9 8 0 24 4 35 9 13 5 14 9 5 9 -8 0
-24 -4 -35 -9z"/>
<path d="M3210 110 c-63 -17 -124 -34 -135 -39 -11 -5 -58 -17 -105 -26 -90
-18 -161 -43 -126 -44 19 -1 170 35 272 64 28 8 60 15 72 15 11 0 23 4 26 9 3
4 31 13 63 20 63 12 104 31 68 30 -11 0 -72 -13 -135 -29z"/>
<path d="M2568 93 c6 -2 18 -2 25 0 6 3 1 5 -13 5 -14 0 -19 -2 -12 -5z"/>
<path d="M2492 80 c-12 -5 -51 -14 -85 -20 -64 -12 -96 -24 -86 -35 4 -3 26 1
50 9 24 8 72 20 107 27 34 7 62 17 62 21 0 10 -19 9 -48 -2z"/>
<path d="M2247 24 c-3 -4 -21 -10 -39 -15 -25 -7 -20 -7 22 -3 57 5 95 24 49
24 -14 0 -28 -3 -32 -6z"/>
</g>
</svg>
